<svg width="34" height="31" viewBox="0 0 34 31" fill="none" xmlns="http://www.w3.org/2000/svg">
<ellipse cx="17.1561" cy="15.5" rx="16.3748" ry="15.5" fill="#D9D9D9"/>
<path d="M13.0662 20.9062L13.6443 19.8906C14.0766 20.2656 14.5219 20.5495 14.9803 20.7422C15.4438 20.9297 15.9126 21.0234 16.3865 21.0234C16.8813 21.0234 17.3162 20.9271 17.6912 20.7344C18.0662 20.5365 18.3605 20.2656 18.574 19.9219C18.7876 19.5729 18.8943 19.1719 18.8943 18.7188C18.8943 17.9896 18.6131 17.4219 18.0506 17.0156C17.4881 16.6042 16.7068 16.3984 15.7068 16.3984H15.3006V15.3984H15.7068C16.2485 15.3984 16.7303 15.3021 17.1521 15.1094C17.5792 14.9167 17.9152 14.6536 18.16 14.3203C18.4047 13.9818 18.5271 13.599 18.5271 13.1719C18.5271 12.8021 18.4334 12.474 18.2459 12.1875C18.0636 11.8958 17.811 11.6693 17.4881 11.5078C17.1652 11.3411 16.7954 11.2578 16.3787 11.2578C15.9725 11.2578 15.5662 11.3438 15.16 11.5156C14.7589 11.6823 14.3709 11.9271 13.9959 12.25L13.3396 11.2969C13.7719 10.8958 14.2589 10.5885 14.8006 10.375C15.3422 10.1562 15.9047 10.0469 16.4881 10.0469C17.1339 10.0469 17.7068 10.1719 18.2068 10.4219C18.712 10.6719 19.1105 11.0156 19.4021 11.4531C19.6938 11.8854 19.8396 12.3802 19.8396 12.9375C19.8396 13.599 19.6339 14.1901 19.2225 14.7109C18.8162 15.2318 18.2902 15.612 17.6443 15.8516C18.4725 16.0391 19.1261 16.3958 19.6053 16.9219C20.0844 17.4479 20.324 18.099 20.324 18.875C20.324 19.5208 20.1574 20.099 19.824 20.6094C19.4907 21.1146 19.035 21.513 18.4568 21.8047C17.8787 22.0911 17.2172 22.2344 16.4725 22.2344C15.837 22.2344 15.2277 22.1224 14.6443 21.8984C14.0662 21.6693 13.5402 21.3385 13.0662 20.9062Z" fill="black"/>
</svg>
