<svg width="34" height="31" viewBox="0 0 34 31" fill="none" xmlns="http://www.w3.org/2000/svg">
<ellipse cx="17.1561" cy="15.5" rx="16.3748" ry="15.5" fill="#D9D9D9"/>
<path d="M20.949 22H13.91V21.1328C14.8735 20.3099 15.6938 19.5573 16.3709 18.875C17.0532 18.1927 17.6079 17.5599 18.035 16.9766C18.462 16.3932 18.7745 15.8438 18.9725 15.3281C19.1756 14.8125 19.2771 14.3125 19.2771 13.8281C19.2771 13.3229 19.1808 12.8776 18.9881 12.4922C18.7954 12.1016 18.5271 11.7995 18.1834 11.5859C17.8396 11.3672 17.4412 11.2578 16.9881 11.2578C16.4725 11.2578 15.9803 11.4062 15.5115 11.7031C15.048 11.9948 14.6678 12.3984 14.3709 12.9141L13.6131 12.0625C14.0141 11.4271 14.5324 10.9323 15.1678 10.5781C15.8032 10.224 16.4855 10.0469 17.2146 10.0469C17.8917 10.0469 18.4907 10.1979 19.0115 10.5C19.5324 10.7969 19.9412 11.2083 20.2381 11.7344C20.535 12.2604 20.6834 12.8672 20.6834 13.5547C20.6834 14.112 20.5792 14.6875 20.3709 15.2812C20.1626 15.8698 19.8527 16.4714 19.4412 17.0859C19.0297 17.6953 18.5193 18.3099 17.91 18.9297C17.3058 19.5495 16.6079 20.1693 15.8162 20.7891H20.949V22Z" fill="black"/>
</svg>
