<svg width="822" height="607" viewBox="0 0 822 607" fill="none" xmlns="http://www.w3.org/2000/svg">
<path d="M217.077 320.506C217.047 320.473 217.006 320.448 216.961 320.431C216.915 320.415 216.864 320.407 216.818 320.411C216.768 320.415 216.722 320.431 216.681 320.456C216.641 320.477 216.61 320.51 216.59 320.547C207.55 334.359 196.199 348.141 182.523 361.894C145.175 399.532 102.82 433.296 59.5408 466.264C42.9797 478.874 40.415 498.519 38.0281 517.83C35.6666 536.796 33.818 558.107 32.4823 581.777C32.4366 582.614 32.6905 583.442 33.2086 584.168C33.7266 584.893 34.4883 585.481 35.4076 585.862C44.1122 589.401 53.147 593.798 55.9452 601.551C56.1585 602.143 56.194 602.769 56.0569 603.378C55.9198 603.987 55.6151 604.559 55.158 605.052C54.7009 605.55 54.1118 605.947 53.4313 606.225C52.7559 606.499 52.0043 606.639 51.2476 606.639L7.12005 606.366C6.59188 606.366 6.07896 606.204 5.68284 605.906C5.28671 605.608 5.04293 605.197 4.99214 604.754C2.76774 585.204 2.05675 565.243 2.85916 544.872C3.55492 526.776 3.09275 516.3 2.54935 493.891C2.36144 486.071 4.71789 479.334 9.60853 473.677C23.8081 457.322 35.9764 444.816 46.4991 429.339C63.6951 404.107 78.7378 377.525 91.6271 349.6C92.2772 348.182 92.3838 346.633 91.9369 345.158C85.6445 325.305 81.7442 306.873 75.8125 278.93C75.264 276.375 75.6601 273.554 76.9958 270.468C84.4054 253.335 94.2984 231.035 106.67 203.569C114.145 186.952 121.286 172.591 128.076 160.485C129.483 157.973 131.966 155.963 135.059 154.83C145.292 151.101 156.419 147.666 168.43 144.524C206.783 134.498 239.809 126.749 267.517 121.275C280.59 118.692 293.982 116.975 307.689 116.123C361.958 112.744 414.856 109.993 466.383 107.871C488.373 106.963 509.185 105.35 528.814 103.032C595.008 95.2266 645.996 88.88 681.78 83.9928C682.78 83.8561 683.705 83.4773 684.436 82.9059C685.167 82.3344 685.675 81.5969 685.888 80.7884C689.636 66.7969 689.141 51.9973 696.5 39.5C697.648 37.545 706.014 3.90715 710.701 1.08646C711.184 0.793911 711.753 0.610751 712.352 0.555638C712.951 0.500111 713.561 0.575112 714.114 0.772357C726.206 4.98246 736.328 51.5066 744.185 60.9113C750.472 68.4514 756.79 72.2007 766.515 66.5453C770.487 64.2413 773.524 61.295 775.631 57.7065C782.868 45.3907 789.491 34.4155 795.499 24.7808C797.926 20.9266 802.116 6.28287 805.691 3.47627C806.687 2.696 808.012 2.24101 809.434 2.19129C810.856 2.14156 812.288 2.5 813.472 3.20403C815.726 4.56568 816.91 8.23086 816.833 10.137C816.387 21.7964 814.406 50.5714 813.263 73.8343C812.928 80.9139 802.736 92.3082 807.255 101.168C812.08 110.719 818.19 117.778 813.492 128.837C810.876 135.022 808.652 141.634 806.819 148.671C804.33 158.264 811.928 161.595 819.114 167.145C820.312 168.078 821.186 169.255 821.643 170.555C822.095 171.854 822.12 173.23 821.709 174.539C816.229 191.742 802.797 199.017 781.406 196.364C757.968 193.452 739.051 191.505 716.588 198.018C692.546 205 675.36 217.358 665.041 235.092C664.35 236.295 663.37 237.376 662.166 238.275C636.804 257.419 603.331 281.569 579.97 307.08C576.354 311.017 574.094 316.466 574.892 321.89C577.228 337.599 579.589 348.365 593.037 358.604C618.298 377.877 642.172 389.5 677.829 408.205C683.816 411.346 687.874 413.642 689.992 415.096C691.607 416.182 692.719 417.682 693.151 419.348C694.212 423.479 695.035 428.34 695.614 433.926C696.198 439.495 698.793 459.435 703.394 493.746C705.446 509.036 709.219 523.577 714.714 537.372C714.846 537.703 714.851 538.055 714.729 538.387C714.607 538.714 714.369 539.008 714.044 539.224C713.719 539.444 713.318 539.572 712.901 539.597C712.485 539.622 712.068 539.539 711.713 539.365L691.866 530.021C690.484 529.374 689.296 528.479 688.392 527.402C687.488 526.324 686.894 525.094 686.655 523.801C685.975 520.046 684.989 515.542 683.705 510.292C683.567 509.745 679.921 491.201 672.77 454.661C670.795 444.588 664.838 439.98 653.853 434.262C618.171 415.689 581.626 398.082 544.212 381.436C537.437 378.44 528.788 373.414 521.597 369.121C521.333 368.959 521.023 368.86 520.693 368.831C520.363 368.802 520.033 368.843 519.728 368.951C519.429 369.059 519.165 369.229 518.972 369.448C518.779 369.664 518.657 369.921 518.621 370.19C511.877 423.053 511.176 476.578 516.519 530.754C518.855 554.631 523.705 569.693 553.841 573.232C563.439 574.343 570.011 578.424 567.238 586.911C567.132 587.255 566.883 587.561 566.532 587.777C566.182 587.996 565.755 588.108 565.313 588.104L520.932 587.851C519.932 587.843 518.946 587.653 518.047 587.292C517.148 586.927 516.361 586.405 515.747 585.755C504.503 573.945 495.783 561.356 489.587 547.992C486.901 542.183 482.955 532.722 477.754 519.611C470.644 501.66 464.459 487.816 465.124 470.329C467.358 412.436 470.517 371.802 463.687 322.831C463.646 322.495 463.468 322.176 463.189 321.927C462.905 321.679 462.529 321.509 462.122 321.451C450.589 319.607 438.223 316.387 425.029 311.792C418.523 309.529 396.716 301.153 359.597 286.659C357.489 285.835 354.152 284.732 349.582 283.35C349.435 283.307 349.277 283.293 349.125 283.309C348.967 283.325 348.82 283.371 348.693 283.442C348.561 283.513 348.454 283.608 348.378 283.719C348.302 283.831 348.256 283.955 348.251 284.083C346.916 306.786 345.991 331.566 345.478 358.418C345.067 379.05 342.218 400.602 340.806 420.604C338.343 454.91 348.094 490.729 369.865 520.618C378.215 532.08 387.412 542.924 397.457 553.147C410.6 566.527 427.055 574.467 445.82 583.264C448.202 584.366 449.914 585.792 450.955 587.536C451.132 587.827 451.209 588.15 451.178 588.473C451.148 588.796 451.016 589.107 450.792 589.372C450.564 589.642 450.259 589.853 449.898 589.99C449.538 590.126 449.142 590.184 448.745 590.155L400.768 586.596C399.037 586.476 397.417 585.833 396.228 584.793C389.773 579.29 377.468 568.981 359.312 553.856C335.987 534.421 317.866 511.717 304.946 485.744C299.705 475.186 296.414 466.202 295.064 458.789C290.056 431.245 285.384 405.039 270.29 382.986C260.722 368.98 252.003 357.775 244.131 349.368C233.831 338.378 224.812 328.76 217.077 320.506Z" fill="#FF7300"/>
<path d="M45.7076 257.985C76.35 216.631 99.5156 177.261 135.159 154.568L137.699 154.575L111.728 268.344L71.0993 318.07L45.7076 361.58L30.472 396.802L10.1578 446.527L0.000572887 463.103C1.49166 437.139 9.40526 365.258 17.7756 326.357C24.7656 293.871 38.5973 267.58 45.7076 257.985Z" fill="#FF7300"/>
</svg>
