<svg width="864" height="160" viewBox="0 0 864 160" fill="none" xmlns="http://www.w3.org/2000/svg">
<path d="M117.94 153.569C115.911 153.569 114.002 153.042 112.213 151.987C110.445 150.91 109.038 149.47 107.99 147.668C106.943 145.866 106.419 143.921 106.419 141.832C106.419 139.745 106.943 137.811 107.99 136.03C109.038 134.228 110.445 132.799 112.213 131.745C114.002 130.667 115.911 130.129 117.94 130.129C119.467 130.129 120.93 130.437 122.326 131.052C123.723 131.645 124.955 132.492 126.025 133.59L124.585 135.041C123.712 134.118 122.697 133.404 121.541 132.898C120.406 132.371 119.205 132.107 117.94 132.107C116.26 132.107 114.7 132.558 113.259 133.458C111.82 134.338 110.674 135.524 109.822 137.019C108.972 138.492 108.546 140.096 108.546 141.832C108.546 143.569 108.972 145.185 109.822 146.679C110.674 148.173 111.82 149.371 113.259 150.272C114.7 151.151 116.26 151.591 117.94 151.591C119.205 151.591 120.406 151.328 121.541 150.8C122.697 150.272 123.712 149.547 124.585 148.624L126.025 150.107C124.955 151.185 123.723 152.03 122.326 152.646C120.93 153.262 119.467 153.569 117.94 153.569ZM136.491 139.624C136.97 138.458 137.8 137.524 138.978 136.822C140.157 136.096 141.509 135.734 143.037 135.734V137.613C141.771 137.613 140.637 137.877 139.633 138.404C138.651 138.909 137.876 139.624 137.309 140.547C136.763 141.448 136.491 142.481 136.491 143.645V153.174H134.462V136.129H136.491V139.624ZM157.318 151.69C158.408 151.69 159.477 151.492 160.525 151.096C161.572 150.701 162.391 150.185 162.979 149.547L164.257 150.932C163.536 151.701 162.522 152.338 161.213 152.844C159.903 153.328 158.615 153.569 157.35 153.569C155.867 153.569 154.47 153.174 153.161 152.383C151.851 151.591 150.804 150.515 150.018 149.151C149.255 147.789 148.873 146.272 148.873 144.602C148.873 142.954 149.244 141.459 149.986 140.118C150.728 138.756 151.731 137.69 152.997 136.92C154.285 136.129 155.681 135.734 157.187 135.734C158.845 135.734 160.275 136.141 161.475 136.954C162.696 137.745 163.623 138.877 164.257 140.349C164.911 141.8 165.239 143.503 165.239 145.459H150.935C151.044 146.624 151.382 147.69 151.95 148.657C152.538 149.602 153.292 150.349 154.208 150.898C155.146 151.426 156.183 151.69 157.318 151.69ZM157.252 137.613C155.616 137.613 154.208 138.173 153.03 139.294C151.873 140.394 151.186 141.822 150.968 143.579H163.209C163.078 141.8 162.489 140.36 161.441 139.262C160.394 138.162 158.997 137.613 157.252 137.613ZM177.842 153.569C176.642 153.569 175.42 153.349 174.176 152.91C172.933 152.449 171.82 151.822 170.838 151.03L171.918 149.515C173.926 150.964 175.901 151.69 177.842 151.69C178.998 151.69 179.959 151.426 180.723 150.898C181.508 150.349 181.9 149.668 181.9 148.855C181.9 147.998 181.53 147.328 180.789 146.843C180.068 146.338 178.945 145.855 177.417 145.394C175.365 144.8 173.903 144.141 173.031 143.415C172.18 142.668 171.755 141.701 171.755 140.514C171.755 139.59 172.006 138.767 172.507 138.041C173.031 137.316 173.729 136.756 174.602 136.36C175.496 135.943 176.489 135.734 177.58 135.734C178.607 135.734 179.642 135.909 180.69 136.261C181.737 136.59 182.719 137.052 183.636 137.645L182.621 139.228C180.875 138.151 179.195 137.613 177.58 137.613C176.511 137.613 175.606 137.866 174.864 138.371C174.144 138.854 173.784 139.492 173.784 140.283C173.784 141.03 174.11 141.635 174.765 142.096C175.442 142.536 176.653 143.041 178.398 143.613C179.599 143.987 180.58 144.371 181.344 144.766C182.13 145.162 182.752 145.679 183.21 146.317C183.69 146.932 183.93 147.711 183.93 148.657C183.93 149.602 183.657 150.449 183.112 151.196C182.588 151.943 181.858 152.525 180.919 152.943C180.003 153.36 178.977 153.569 177.842 153.569ZM199.249 153.569C197.678 153.569 196.227 153.174 194.896 152.383C193.565 151.591 192.507 150.515 191.721 149.151C190.957 147.766 190.576 146.262 190.576 144.635C190.576 143.009 190.957 141.514 191.721 140.151C192.507 138.788 193.565 137.711 194.896 136.92C196.227 136.129 197.678 135.734 199.249 135.734C200.362 135.734 201.431 135.954 202.456 136.392C203.482 136.832 204.399 137.448 205.206 138.239L203.766 139.624C203.176 138.986 202.489 138.492 201.704 138.141C200.918 137.788 200.1 137.613 199.249 137.613C198.049 137.613 196.947 137.932 195.943 138.569C194.94 139.184 194.143 140.03 193.554 141.107C192.986 142.162 192.703 143.338 192.703 144.635C192.703 145.932 192.986 147.119 193.554 148.196C194.143 149.272 194.94 150.13 195.943 150.767C196.947 151.383 198.049 151.69 199.249 151.69C200.122 151.69 200.951 151.515 201.736 151.162C202.544 150.789 203.253 150.272 203.864 149.613L205.271 150.998C204.464 151.811 203.537 152.449 202.489 152.91C201.463 153.349 200.384 153.569 199.249 153.569ZM212.978 136.129H215.006V153.174H212.978V136.129ZM213.992 132.799C213.599 132.799 213.261 132.667 212.978 132.403C212.716 132.118 212.585 131.777 212.585 131.382C212.585 131.009 212.716 130.679 212.978 130.392C213.261 130.107 213.599 129.964 213.992 129.964C214.363 129.964 214.691 130.107 214.974 130.392C215.257 130.679 215.399 131.009 215.399 131.382C215.399 131.777 215.257 132.118 214.974 132.403C214.691 132.667 214.363 132.799 213.992 132.799ZM241.506 135.734C242.662 135.734 243.688 136.009 244.583 136.558C245.477 137.107 246.176 137.877 246.677 138.866C247.179 139.854 247.43 140.975 247.43 142.228V153.174H245.401V142.492C245.401 141.064 245.008 139.898 244.222 138.998C243.459 138.075 242.466 137.613 241.244 137.613C239.847 137.613 238.702 138.041 237.807 138.898C236.935 139.756 236.498 140.866 236.498 142.228V153.174H234.468V142.492C234.468 141.064 234.076 139.898 233.291 138.998C232.527 138.075 231.534 137.613 230.312 137.613C228.915 137.613 227.77 138.041 226.876 138.898C226.002 139.756 225.566 140.866 225.566 142.228V153.174H223.537V136.129H225.566V138.602C225.981 137.722 226.625 137.03 227.497 136.524C228.392 135.997 229.417 135.734 230.574 135.734C231.686 135.734 232.679 135.997 233.553 136.524C234.447 137.052 235.145 137.777 235.647 138.701C236.258 137.756 237.066 137.03 238.069 136.524C239.094 135.997 240.24 135.734 241.506 135.734ZM263.589 151.69C264.68 151.69 265.749 151.492 266.797 151.096C267.844 150.701 268.662 150.185 269.251 149.547L270.528 150.932C269.807 151.701 268.793 152.338 267.484 152.844C266.174 153.328 264.887 153.569 263.622 153.569C262.138 153.569 260.741 153.174 259.432 152.383C258.124 151.591 257.076 150.515 256.29 149.151C255.526 147.789 255.144 146.272 255.144 144.602C255.144 142.954 255.515 141.459 256.257 140.118C257 138.756 258.003 137.69 259.269 136.92C260.556 136.129 261.952 135.734 263.458 135.734C265.116 135.734 266.546 136.141 267.746 136.954C268.968 137.745 269.895 138.877 270.528 140.349C271.182 141.8 271.51 143.503 271.51 145.459H257.207C257.315 146.624 257.653 147.69 258.221 148.657C258.81 149.602 259.563 150.349 260.479 150.898C261.417 151.426 262.454 151.69 263.589 151.69ZM263.523 137.613C261.888 137.613 260.479 138.173 259.301 139.294C258.145 140.394 257.457 141.822 257.239 143.579H269.48C269.349 141.8 268.761 140.36 267.713 139.262C266.666 138.162 265.269 137.613 263.523 137.613ZM286.897 135.734C288.119 135.734 289.21 136.009 290.17 136.558C291.13 137.107 291.872 137.877 292.396 138.866C292.941 139.832 293.214 140.954 293.214 142.228V153.174H291.185V142.492C291.185 141.041 290.759 139.866 289.908 138.964C289.057 138.064 287.956 137.613 286.602 137.613C285.62 137.613 284.726 137.822 283.919 138.239C283.111 138.656 282.479 139.228 282.02 139.954C281.562 140.656 281.333 141.448 281.333 142.328V153.174H279.304V136.129H281.333V138.898C281.791 137.954 282.523 137.195 283.526 136.624C284.53 136.03 285.653 135.734 286.897 135.734ZM310.146 152.481C309.71 152.832 309.219 153.096 308.673 153.272C308.128 153.47 307.571 153.569 307.004 153.569C305.869 153.569 304.931 153.162 304.189 152.349C303.448 151.536 303.076 150.492 303.076 149.217V138.009H300.327V136.129H303.076V131.448H305.106V136.129H309.36V138.009H305.106V149.217C305.106 149.943 305.302 150.536 305.695 150.998C306.088 151.459 306.568 151.69 307.135 151.69C307.528 151.69 307.888 151.624 308.215 151.492C308.564 151.36 308.859 151.185 309.098 150.964L310.146 152.481ZM324.584 153.569C323.013 153.569 321.551 153.162 320.197 152.349C318.866 151.536 317.808 150.449 317.023 149.085C316.237 147.723 315.844 146.239 315.844 144.635C315.844 143.03 316.237 141.547 317.023 140.184C317.808 138.822 318.866 137.745 320.197 136.954C321.551 136.141 323.013 135.734 324.584 135.734C326.154 135.734 327.605 136.141 328.937 136.954C330.29 137.745 331.359 138.822 332.144 140.184C332.93 141.547 333.323 143.03 333.323 144.635C333.323 146.239 332.93 147.723 332.144 149.085C331.359 150.449 330.29 151.536 328.937 152.349C327.605 153.162 326.154 153.569 324.584 153.569ZM324.584 151.69C325.784 151.69 326.886 151.371 327.89 150.734C328.915 150.096 329.722 149.239 330.311 148.162C330.923 147.085 331.228 145.909 331.228 144.635C331.228 143.382 330.923 142.217 330.311 141.141C329.722 140.064 328.915 139.206 327.89 138.569C326.886 137.932 325.784 137.613 324.584 137.613C323.384 137.613 322.271 137.932 321.245 138.569C320.241 139.206 319.434 140.064 318.824 141.141C318.234 142.217 317.939 143.382 317.939 144.635C317.939 145.909 318.234 147.085 318.824 148.162C319.434 149.239 320.241 150.096 321.245 150.734C322.271 151.371 323.384 151.69 324.584 151.69ZM372.095 153.404L368.986 150.239C366.978 152.459 364.709 153.569 362.178 153.569C360.869 153.569 359.669 153.306 358.577 152.778C357.508 152.228 356.657 151.47 356.025 150.503C355.413 149.515 355.108 148.394 355.108 147.141C355.108 144.283 356.875 142.096 360.41 140.579C359.69 139.59 359.166 138.711 358.839 137.943C358.512 137.151 358.349 136.36 358.349 135.569C358.349 134.602 358.588 133.711 359.069 132.898C359.549 132.085 360.203 131.448 361.032 130.986C361.861 130.503 362.799 130.261 363.847 130.261C364.807 130.261 365.68 130.503 366.466 130.986C367.273 131.448 367.905 132.085 368.363 132.898C368.844 133.711 369.084 134.579 369.084 135.503C369.084 136.866 368.615 137.964 367.677 138.8C366.76 139.613 365.364 140.415 363.486 141.206C365.167 143.184 366.978 145.196 368.921 147.239C369.88 145.855 370.807 144.096 371.702 141.964L373.502 142.756C372.346 145.217 371.266 147.173 370.262 148.624L372.455 150.866L374.026 152.481L372.095 153.404ZM363.847 132.141C362.844 132.141 362.014 132.458 361.359 133.096C360.704 133.733 360.377 134.558 360.377 135.569C360.377 136.184 360.531 136.832 360.835 137.514C361.163 138.173 361.665 138.943 362.341 139.822C364.043 139.118 365.254 138.47 365.974 137.877C366.694 137.261 367.054 136.481 367.054 135.536C367.054 134.59 366.749 133.788 366.138 133.129C365.527 132.469 364.764 132.141 363.847 132.141ZM362.244 151.69C364.185 151.69 365.996 150.745 367.677 148.855C364.927 145.998 362.876 143.711 361.523 141.998C358.6 143.316 357.137 145.019 357.137 147.107C357.137 147.987 357.367 148.778 357.825 149.481C358.283 150.185 358.905 150.734 359.69 151.13C360.476 151.503 361.327 151.69 362.244 151.69ZM406.374 130.524C407.901 130.524 409.276 130.832 410.498 131.448C411.742 132.063 412.713 132.92 413.411 134.019C414.131 135.096 414.49 136.316 414.49 137.679C414.49 139.041 414.131 140.272 413.411 141.371C412.713 142.448 411.742 143.294 410.498 143.909C409.276 144.503 407.901 144.8 406.374 144.8H399.239V153.174H397.144V130.524H406.374ZM405.981 142.789C407.901 142.789 409.439 142.328 410.596 141.404C411.774 140.481 412.363 139.239 412.363 137.679C412.363 136.118 411.774 134.877 410.596 133.954C409.439 133.009 407.901 132.535 405.981 132.535H399.239V142.789H405.981ZM429.602 151.69C430.694 151.69 431.763 151.492 432.81 151.096C433.857 150.701 434.676 150.185 435.265 149.547L436.541 150.932C435.821 151.701 434.807 152.338 433.497 152.844C432.188 153.328 430.901 153.569 429.636 153.569C428.151 153.569 426.755 153.174 425.445 152.383C424.136 151.591 423.088 150.515 422.304 149.151C421.54 147.789 421.158 146.272 421.158 144.602C421.158 142.954 421.529 141.459 422.271 140.118C423.012 138.756 424.016 137.69 425.282 136.92C426.569 136.129 427.966 135.734 429.471 135.734C431.13 135.734 432.559 136.141 433.759 136.954C434.981 137.745 435.908 138.877 436.541 140.349C437.196 141.8 437.523 143.503 437.523 145.459H423.219C423.329 146.624 423.667 147.69 424.235 148.657C424.824 149.602 425.576 150.349 426.493 150.898C427.431 151.426 428.468 151.69 429.602 151.69ZM429.537 137.613C427.9 137.613 426.493 138.173 425.314 139.294C424.159 140.394 423.471 141.822 423.253 143.579H435.494C435.363 141.8 434.773 140.36 433.726 139.262C432.679 138.162 431.282 137.613 429.537 137.613ZM447.346 139.624C447.827 138.458 448.655 137.524 449.834 136.822C451.012 136.096 452.365 135.734 453.892 135.734V137.613C452.627 137.613 451.492 137.877 450.489 138.404C449.506 138.909 448.732 139.624 448.165 140.547C447.619 141.448 447.346 142.481 447.346 143.645V153.174H445.317V136.129H447.346V139.624ZM465.558 136.129H469.911V138.009H465.558V153.174H463.528V138.009H460.779V136.129H463.528V133.788C463.528 132.514 463.889 131.469 464.608 130.656C465.35 129.843 466.299 129.437 467.456 129.437C468.591 129.437 469.638 129.799 470.598 130.524L469.55 132.041C469.07 131.558 468.416 131.316 467.587 131.316C467.019 131.316 466.54 131.547 466.147 132.009C465.754 132.469 465.558 133.063 465.558 133.788V136.129ZM484.396 153.569C482.825 153.569 481.363 153.162 480.01 152.349C478.68 151.536 477.62 150.449 476.836 149.085C476.05 147.723 475.657 146.239 475.657 144.635C475.657 143.03 476.05 141.547 476.836 140.184C477.62 138.822 478.68 137.745 480.01 136.954C481.363 136.141 482.825 135.734 484.396 135.734C485.967 135.734 487.418 136.141 488.749 136.954C490.102 137.745 491.172 138.822 491.956 140.184C492.742 141.547 493.135 143.03 493.135 144.635C493.135 146.239 492.742 147.723 491.956 149.085C491.172 150.449 490.102 151.536 488.749 152.349C487.418 153.162 485.967 153.569 484.396 153.569ZM484.396 151.69C485.596 151.69 486.698 151.371 487.702 150.734C488.728 150.096 489.535 149.239 490.124 148.162C490.735 147.085 491.041 145.909 491.041 144.635C491.041 143.382 490.735 142.217 490.124 141.141C489.535 140.064 488.728 139.206 487.702 138.569C486.698 137.932 485.596 137.613 484.396 137.613C483.196 137.613 482.083 137.932 481.058 138.569C480.053 139.206 479.246 140.064 478.636 141.141C478.046 142.217 477.751 143.382 477.751 144.635C477.751 145.909 478.046 147.085 478.636 148.162C479.246 149.239 480.053 150.096 481.058 150.734C482.083 151.371 483.196 151.69 484.396 151.69ZM503.061 139.624C503.54 138.458 504.37 137.524 505.548 136.822C506.727 136.096 508.079 135.734 509.607 135.734V137.613C508.341 137.613 507.207 137.877 506.203 138.404C505.221 138.909 504.446 139.624 503.879 140.547C503.333 141.448 503.061 142.481 503.061 143.645V153.174H501.032V136.129H503.061V139.624ZM535.313 135.734C536.47 135.734 537.495 136.009 538.39 136.558C539.284 137.107 539.983 137.877 540.485 138.866C540.986 139.854 541.238 140.975 541.238 142.228V153.174H539.208V142.492C539.208 141.064 538.815 139.898 538.029 138.998C537.266 138.075 536.274 137.613 535.051 137.613C533.655 137.613 532.509 138.041 531.614 138.898C530.742 139.756 530.305 140.866 530.305 142.228V153.174H528.276V142.492C528.276 141.064 527.884 139.898 527.098 138.998C526.334 138.075 525.341 137.613 524.12 137.613C522.723 137.613 521.577 138.041 520.683 138.898C519.81 139.756 519.374 140.866 519.374 142.228V153.174H517.344V136.129H519.374V138.602C519.788 137.722 520.432 137.03 521.304 136.524C522.199 135.997 523.224 135.734 524.381 135.734C525.494 135.734 526.487 135.997 527.36 136.524C528.254 137.052 528.953 137.777 529.455 138.701C530.066 137.756 530.873 137.03 531.876 136.524C532.902 135.997 534.048 135.734 535.313 135.734ZM556.48 135.734C558.64 135.734 560.31 136.382 561.487 137.679C562.666 138.954 563.255 140.656 563.255 142.789V153.174H561.226V150.47C560.637 151.437 559.753 152.196 558.574 152.745C557.397 153.294 556.208 153.569 555.007 153.569C553.218 153.569 551.745 153.075 550.589 152.085C549.432 151.075 548.854 149.756 548.854 148.13C548.854 147.03 549.149 146.053 549.738 145.196C550.327 144.338 551.124 143.668 552.127 143.184C553.152 142.701 554.298 142.459 555.564 142.459C557.266 142.459 559.153 142.8 561.226 143.481V142.789C561.226 141.316 560.844 140.075 560.08 139.064C559.317 138.052 558.062 137.547 556.316 137.547C554.789 137.547 553.12 138.052 551.308 139.064L550.49 137.382C552.541 136.283 554.538 135.734 556.48 135.734ZM555.334 151.723C556.643 151.723 557.877 151.383 559.033 150.701C560.19 150.019 560.921 149.064 561.226 147.832V145.096C559.371 144.525 557.582 144.239 555.858 144.239C554.44 144.239 553.251 144.602 552.29 145.328C551.331 146.03 550.85 146.932 550.85 148.03C550.85 149.151 551.276 150.053 552.127 150.734C552.978 151.394 554.047 151.723 555.334 151.723ZM579.202 135.734C580.424 135.734 581.515 136.009 582.476 136.558C583.435 137.107 584.178 137.877 584.702 138.866C585.247 139.832 585.519 140.954 585.519 142.228V153.174H583.49V142.492C583.49 141.041 583.065 139.866 582.214 138.964C581.362 138.064 580.26 137.613 578.908 137.613C577.926 137.613 577.031 137.822 576.224 138.239C575.416 138.656 574.783 139.228 574.326 139.954C573.868 140.656 573.638 141.448 573.638 142.328V153.174H571.608V136.129H573.638V138.898C574.096 137.954 574.827 137.195 575.831 136.624C576.835 136.03 577.959 135.734 579.202 135.734ZM601.853 153.569C600.283 153.569 598.831 153.174 597.499 152.383C596.169 151.591 595.11 150.515 594.325 149.151C593.562 147.766 593.179 146.262 593.179 144.635C593.179 143.009 593.562 141.514 594.325 140.151C595.11 138.788 596.169 137.711 597.499 136.92C598.831 136.129 600.283 135.734 601.853 135.734C602.966 135.734 604.035 135.954 605.061 136.392C606.086 136.832 607.002 137.448 607.81 138.239L606.37 139.624C605.781 138.986 605.093 138.492 604.307 138.141C603.523 137.788 602.704 137.613 601.853 137.613C600.653 137.613 599.551 137.932 598.547 138.569C597.543 139.184 596.747 140.03 596.158 141.107C595.591 142.162 595.307 143.338 595.307 144.635C595.307 145.932 595.591 147.119 596.158 148.196C596.747 149.272 597.543 150.13 598.547 150.767C599.551 151.383 600.653 151.69 601.853 151.69C602.725 151.69 603.555 151.515 604.341 151.162C605.148 150.789 605.857 150.272 606.468 149.613L607.875 150.998C607.068 151.811 606.141 152.449 605.093 152.91C604.068 153.349 602.987 153.569 601.853 153.569ZM623.371 151.69C624.463 151.69 625.532 151.492 626.579 151.096C627.626 150.701 628.445 150.185 629.034 149.547L630.31 150.932C629.59 151.701 628.576 152.338 627.266 152.844C625.957 153.328 624.67 153.569 623.404 153.569C621.92 153.569 620.524 153.174 619.214 152.383C617.905 151.591 616.857 150.515 616.073 149.151C615.309 147.789 614.926 146.272 614.926 144.602C614.926 142.954 615.298 141.459 616.039 140.118C616.781 138.756 617.786 137.69 619.051 136.92C620.338 136.129 621.734 135.734 623.24 135.734C624.898 135.734 626.328 136.141 627.528 136.954C628.749 137.745 629.677 138.877 630.31 140.349C630.965 141.8 631.292 143.503 631.292 145.459H616.988C617.098 146.624 617.436 147.69 618.004 148.657C618.593 149.602 619.345 150.349 620.262 150.898C621.2 151.426 622.237 151.69 623.371 151.69ZM623.306 137.613C621.669 137.613 620.262 138.173 619.083 139.294C617.927 140.394 617.239 141.822 617.022 143.579H629.262C629.131 141.8 628.542 140.36 627.495 139.262C626.448 138.162 625.051 137.613 623.306 137.613ZM661.157 130.524C663.47 130.524 665.532 131.009 667.344 131.975C669.155 132.943 670.562 134.283 671.565 135.997C672.591 137.711 673.104 139.656 673.104 141.832C673.104 144.009 672.591 145.964 671.565 147.701C670.562 149.415 669.155 150.756 667.344 151.723C665.532 152.69 663.47 153.174 661.157 153.174H653.532V130.524H661.157ZM661.157 151.228C663.056 151.228 664.747 150.832 666.231 150.041C667.737 149.228 668.903 148.119 669.733 146.711C670.562 145.283 670.977 143.657 670.977 141.832C670.977 140.03 670.551 138.426 669.7 137.019C668.871 135.59 667.714 134.481 666.231 133.69C664.747 132.877 663.056 132.469 661.157 132.469H655.626V151.228H661.157ZM681.716 136.129H683.745V153.174H681.716V136.129ZM682.731 132.799C682.338 132.799 682 132.667 681.716 132.403C681.454 132.118 681.324 131.777 681.324 131.382C681.324 131.009 681.454 130.679 681.716 130.392C682 130.107 682.338 129.964 682.731 129.964C683.102 129.964 683.428 130.107 683.713 130.392C683.996 130.679 684.138 131.009 684.138 131.382C684.138 131.777 683.996 132.118 683.713 132.403C683.428 132.667 683.102 132.799 682.731 132.799ZM707.757 136.129V151.36C707.757 152.811 707.408 154.096 706.709 155.217C706.033 156.36 705.073 157.251 703.829 157.888C702.607 158.525 701.211 158.844 699.639 158.844C698.331 158.844 697.054 158.636 695.81 158.217C694.588 157.8 693.585 157.251 692.799 156.57L693.716 154.921C694.413 155.558 695.265 156.053 696.268 156.404C697.294 156.778 698.342 156.965 699.411 156.965C701.352 156.965 702.891 156.459 704.026 155.449C705.16 154.459 705.727 153.096 705.727 151.36V148.262C705.073 149.426 704.178 150.328 703.044 150.964C701.931 151.602 700.676 151.921 699.28 151.921C697.839 151.921 696.53 151.569 695.351 150.866C694.195 150.162 693.279 149.196 692.603 147.964C691.948 146.734 691.621 145.349 691.621 143.811C691.621 142.294 691.948 140.92 692.603 139.69C693.279 138.458 694.195 137.492 695.351 136.788C696.53 136.085 697.839 135.734 699.28 135.734C700.698 135.734 701.963 136.052 703.076 136.69C704.189 137.305 705.073 138.196 705.727 139.36V136.129H707.757ZM699.639 150.041C700.796 150.041 701.833 149.778 702.749 149.251C703.688 148.723 704.419 147.987 704.942 147.041C705.465 146.096 705.727 145.019 705.727 143.811C705.727 142.624 705.465 141.558 704.942 140.613C704.419 139.668 703.688 138.932 702.749 138.404C701.833 137.877 700.796 137.613 699.639 137.613C698.526 137.613 697.512 137.888 696.595 138.437C695.701 138.964 694.992 139.701 694.468 140.645C693.966 141.591 693.716 142.645 693.716 143.811C693.716 144.975 693.966 146.041 694.468 147.009C694.992 147.954 695.701 148.701 696.595 149.251C697.512 149.778 698.526 150.041 699.639 150.041ZM716.324 136.129H718.352V153.174H716.324V136.129ZM717.338 132.799C716.945 132.799 716.607 132.667 716.324 132.403C716.062 132.118 715.931 131.777 715.931 131.382C715.931 131.009 716.062 130.679 716.324 130.392C716.607 130.107 716.945 129.964 717.338 129.964C717.709 129.964 718.036 130.107 718.32 130.392C718.603 130.679 718.745 131.009 718.745 131.382C718.745 131.777 718.603 132.118 718.32 132.403C718.036 132.667 717.709 132.799 717.338 132.799ZM735.851 152.481C735.414 152.832 734.924 153.096 734.377 153.272C733.832 153.47 733.276 153.569 732.708 153.569C731.574 153.569 730.636 153.162 729.893 152.349C729.152 151.536 728.781 150.492 728.781 149.217V138.009H726.031V136.129H728.781V131.448H730.81V136.129H735.065V138.009H730.81V149.217C730.81 149.943 731.006 150.536 731.399 150.998C731.792 151.459 732.272 151.69 732.839 151.69C733.232 151.69 733.592 151.624 733.919 151.492C734.269 151.36 734.563 151.185 734.804 150.964L735.851 152.481ZM748.055 135.734C750.215 135.734 751.885 136.382 753.062 137.679C754.241 138.954 754.83 140.656 754.83 142.789V153.174H752.8V150.47C752.212 151.437 751.328 152.196 750.149 152.745C748.971 153.294 747.782 153.569 746.582 153.569C744.793 153.569 743.32 153.075 742.163 152.085C741.007 151.075 740.429 149.756 740.429 148.13C740.429 147.03 740.724 146.053 741.313 145.196C741.901 144.338 742.699 143.668 743.702 143.184C744.727 142.701 745.873 142.459 747.139 142.459C748.84 142.459 750.728 142.8 752.8 143.481V142.789C752.8 141.316 752.419 140.075 751.655 139.064C750.892 138.052 749.638 137.547 747.891 137.547C746.364 137.547 744.695 138.052 742.883 139.064L742.065 137.382C744.117 136.283 746.113 135.734 748.055 135.734ZM746.909 151.723C748.219 151.723 749.452 151.383 750.608 150.701C751.765 150.019 752.496 149.064 752.8 147.832V145.096C750.946 144.525 749.157 144.239 747.433 144.239C746.015 144.239 744.826 144.602 743.865 145.328C742.906 146.03 742.425 146.932 742.425 148.03C742.425 149.151 742.851 150.053 743.702 150.734C744.553 151.394 745.622 151.723 746.909 151.723ZM763.217 130.129H765.246V153.174H763.217V130.129Z" fill="white"/>
<path d="M380.746 5.79774L341.678 89.0294C340.201 92.4957 338.186 95.7053 335.709 98.5384C334.122 100.324 332.171 101.747 329.989 102.709C327.936 103.456 325.76 103.805 323.576 103.738C321.592 103.903 319.596 103.623 317.733 102.919C315.869 102.214 314.184 101.103 312.802 99.6644C310.271 97.2407 308.08 94.4812 306.293 91.4622L274.44 31.6834C271.67 26.915 268.65 22.2716 265.672 17.6284C263.348 13.7398 260.614 10.1137 257.515 6.81256C257.515 6.81256 256.2 5.49188 255.687 4.86628C255.572 4.70521 255.496 4.51964 255.466 4.32413C255.439 4.20809 255.437 4.08793 255.457 3.97077C255.478 3.85359 255.522 3.74177 255.586 3.64197C255.651 3.54215 255.735 3.45636 255.834 3.38966C255.931 3.32296 256.042 3.2767 256.158 3.25364C256.297 3.23979 256.435 3.23979 256.574 3.25364C256.574 3.25364 258.858 3.47606 261.172 3.93483C265.453 4.75849 269.674 5.87795 273.802 7.28523C279.034 9.36429 283.948 12.1722 288.399 15.6264C292.378 18.8832 295.81 22.7603 298.565 27.1096C300.753 30.599 302.72 34.2692 304.672 37.8559L323.452 72.194C323.826 72.5971 324.186 71.7908 324.366 71.4571L356.22 5.54747C356.359 5.16395 356.62 4.83738 356.963 4.6186C357.306 4.39983 357.712 4.30116 358.117 4.338L379.943 4.44924C381.051 4.35192 381.273 4.69947 380.746 5.79774Z" fill="white"/>
<path d="M140.184 26.4937V26.0631C140.184 13.4344 150.442 2.95819 162.98 2.95819H249.89V3.53222C249.89 16.1611 239.632 26.4937 227.094 26.4937C198.029 26.4937 169.107 26.4937 140.184 26.4937ZM167.397 64.9542C165.26 64.9542 163.408 66.8198 163.408 69.1159V80.0226H249.89C249.89 93.2254 239.774 103.558 227.094 103.558C198.029 103.558 169.107 103.558 140.184 103.558V64.5237C140.184 51.8948 150.442 41.5622 162.98 41.5622C191.902 41.5622 220.967 41.5622 249.89 41.5622C249.89 54.765 239.774 64.9542 227.094 64.9542H167.397Z" fill="white"/>
<path d="M849.833 58.156C848.34 55.7642 846.518 53.6005 844.422 51.7299C842.391 49.9201 840.112 48.4158 837.659 47.263C834.336 45.6906 830.732 44.8189 827.066 44.7008H789.19C787.278 44.532 785.459 43.7902 783.965 42.57C782.472 41.3498 781.371 39.7066 780.803 37.85C780.591 36.8486 780.593 35.8131 780.809 34.8126C781.024 33.8122 781.447 32.8696 782.049 32.0477C782.653 31.2257 783.422 30.5432 784.305 30.0459C785.188 29.5485 786.167 29.2475 787.175 29.163L841.662 28.9164C842.414 28.8661 843.125 28.5454 843.665 28.012L862.751 7.55536C862.837 7.46563 862.895 7.35209 862.917 7.22916C862.939 7.10622 862.924 6.97944 862.875 6.86491C862.825 6.75039 862.744 6.65329 862.64 6.58593C862.536 6.51857 862.415 6.484 862.292 6.48662H859.762L787.634 6.58254C782.768 6.54837 777.943 7.47933 773.431 9.3229C769.535 10.9126 766.064 13.41 763.299 16.6122C760.35 20.0399 758.273 24.1465 757.252 28.5739C755.797 34.675 756.299 41.087 758.686 46.8794C759.613 48.971 760.698 50.9868 761.932 52.9082C763.41 55.2733 765.286 57.3558 767.478 59.0603C769.912 61.1307 772.752 62.6534 775.811 63.5271L776.556 63.7463C778.703 64.2881 780.904 64.5868 783.116 64.6369L822.495 65.5001C823.898 65.5894 825.258 66.0226 826.46 66.7625C827.662 67.5023 828.668 68.5268 829.394 69.7477C830.261 71.2706 830.654 73.0233 830.52 74.7762C830.388 76.5292 829.736 78.2007 828.649 79.5718C827.924 80.4413 827.017 81.1379 825.995 81.6116C824.974 82.0854 823.862 82.3246 822.737 82.3122H761.729C761.339 82.255 760.94 82.3218 760.59 82.5034C760.238 82.685 759.951 82.9723 759.768 83.3261L745.104 102.646C744.942 102.878 744.793 103.358 744.902 103.495C745.162 103.693 745.482 103.795 745.807 103.783L824.131 103.44C829.16 103.132 834.065 101.73 838.51 99.3297C842.044 97.2715 845.134 94.5183 847.601 91.2319C849.98 88.2528 851.689 84.783 852.606 81.0653C853.447 77.804 853.759 74.4256 853.526 71.063C853.401 66.5121 852.13 62.0691 849.833 58.156Z" fill="white"/>
<path d="M737.334 44.2371C733.746 25.6437 716.716 10.6438 698.082 8.47956C695.283 8.30261 692.496 7.56757 689.71 7.56757L647.387 7.90785C647.189 7.92117 646.996 7.97375 646.818 8.06255C646.641 8.15135 646.483 8.2746 646.354 8.4251L626.905 29.0058C626.849 29.0778 626.815 29.1639 626.805 29.2543C626.796 29.3449 626.812 29.4363 626.851 29.5183C626.891 29.6002 626.952 29.6696 627.029 29.7185C627.106 29.7674 627.195 29.7939 627.285 29.7952H685.415C689.752 29.7952 694.807 29.4822 699.007 31.0747C723.104 38.3705 718.673 75.4074 695.255 80.7567C691.088 81.7961 686.801 82.2811 682.507 82.1996H665.531C664.064 82.1996 663.901 82.009 663.901 80.5526L664.09 48.5655C664.09 47.8168 663.737 47.6671 663.112 47.6671H640.972C640.238 47.6671 639.939 47.9802 639.993 48.688L639.87 101.936C639.87 103.733 639.87 103.76 641.665 103.76C656.008 103.76 670.351 103.76 684.695 103.76C691.539 103.956 698.364 102.933 704.851 100.739C727.847 93.3202 742.675 68.0164 737.334 44.2371Z" fill="white"/>
<path d="M620.098 101.284L582.03 19.8425C580.592 16.4507 578.629 13.3103 576.214 10.538C574.669 8.79053 572.768 7.39875 570.642 6.4571C568.641 5.726 566.521 5.38443 564.394 5.45048C562.46 5.28895 560.515 5.56273 558.7 6.25206C556.884 6.94139 555.242 8.02899 553.896 9.43618C551.428 11.8078 549.294 14.5079 547.553 17.462L516.516 75.9553C513.817 80.6211 510.876 85.1646 507.974 89.7081C505.709 93.513 503.044 97.0611 500.026 100.291C500.026 100.291 498.744 101.584 498.245 102.196C498.133 102.353 498.059 102.535 498.028 102.726C498.003 102.84 498.001 102.957 498.021 103.072C498.041 103.187 498.083 103.296 498.147 103.394C498.21 103.491 498.292 103.575 498.387 103.641C498.483 103.706 498.59 103.751 498.703 103.774C498.839 103.787 498.974 103.787 499.108 103.774C499.108 103.774 501.335 103.556 503.589 103.107C507.761 102.301 511.873 101.206 515.896 99.8287C520.992 97.7944 525.781 95.0468 530.118 91.6669C533.995 88.4803 537.339 84.6866 540.023 80.4307C542.155 77.0163 544.072 73.4252 545.974 69.9156L564.272 36.3159C564.637 35.9214 564.987 36.7104 565.163 37.0369L596.199 101.529C596.335 101.904 596.59 102.224 596.924 102.438C597.259 102.652 597.654 102.749 598.048 102.713L619.315 102.604C620.395 102.699 620.61 102.359 620.098 101.284Z" fill="white"/>
<path d="M7.09595 2.95819H98.2801C116.802 2.95819 131.904 18.3136 131.904 36.9698C131.904 55.626 116.802 70.8381 98.2801 70.8381H91.1046L109.912 103.558H82.9835L50.7841 48.3607H98.2801C111.957 48.3607 111.957 26.4937 98.2801 26.4937H33.4539C25.0478 26.4937 17.7816 22.3319 13.6498 15.013L7.09595 2.95819Z" fill="white"/>
<path d="M0 67.8392V68.203H69.288C79.2837 68.203 87.4618 59.4696 87.4618 48.7954V48.3102H18.1739C8.17825 48.3102 0 57.165 0 67.8392Z" fill="white"/>
<path d="M31.0349 68.2027H8.46411V103.726H25.3922C28.5086 103.726 31.0349 101.181 31.0349 98.0418V68.2027Z" fill="white"/>
<path d="M484.932 65.9459C487.6 64.1846 487.261 59.4895 487.261 56.6673C487.261 47.2699 483.897 38.2313 476.394 32.1039C462.823 21.0217 444.477 25.3348 430.209 32.211C426.272 34.1085 417.481 39.4318 414.337 33.8514C412.759 31.05 415.273 27.7561 417.081 25.7384C421.676 20.6115 427.919 17.1394 434.478 15.192C446.975 11.4821 462.555 12.8306 472.901 21.2788C475.435 23.3476 477.625 25.8729 479.628 28.4447C480.982 30.1821 482.005 32.1155 483.768 33.4706C482.68 28.9121 479.51 24.7096 476.626 21.0991C463.761 4.99049 441.832 0.0395126 422.447 5.20355C407.985 9.05629 395.389 22.337 396.071 37.7233C396.5 47.3964 404.682 54.0078 414.297 52.6357C430.813 50.2785 444.443 37.6959 461.646 38.1157C475.374 38.4506 488.57 51.9367 484.932 65.9459Z" fill="#126BFF"/>
<path d="M390.28 46.4865C386.589 61.8869 398.534 78.5873 413.993 81.1213C423.098 82.6141 432.422 79.8974 440.816 76.5345C446.008 74.4547 451.245 71.6862 456.755 70.543C459.552 69.9625 462.711 70.4758 463.851 73.5227C465.025 76.6604 461.852 80.0287 459.863 82.0189C454.514 87.3735 447.352 91.42 440.039 93.4423C426.692 97.1327 411.509 93.1159 401.555 83.5491C398.048 80.1785 395.814 76.1038 393.39 71.9774C393.194 74.1152 394.724 76.6986 395.733 78.5432C398.628 83.8349 402.306 88.3963 406.996 92.2102C422.974 105.204 446.748 107.938 464.53 96.918C474.637 90.6541 485.022 77.4182 479.11 65.0253C478.219 63.1564 476.92 61.4574 475.409 60.0403C464.194 49.5234 448.825 57.7546 437.318 62.9749C423.803 69.1062 405.184 72.2848 394.762 58.8457C393.054 56.6438 391.852 53.8198 391.224 51.1212C390.87 49.6006 390.886 47.9082 390.28 46.4865Z" fill="#E61D5E"/>
</svg>
