<svg width="1195" height="219" viewBox="0 0 1195 219" fill="none" xmlns="http://www.w3.org/2000/svg">
<path d="M163.123 210.197C160.317 210.197 157.676 209.476 155.202 208.032C152.757 206.558 150.81 204.587 149.362 202.121C147.913 199.654 147.188 196.992 147.188 194.133C147.188 191.276 147.913 188.629 149.362 186.191C150.81 183.725 152.757 181.769 155.202 180.326C157.676 178.851 160.317 178.114 163.123 178.114C165.235 178.114 167.258 178.535 169.19 179.377C171.121 180.19 172.825 181.348 174.305 182.852L172.313 184.837C171.106 183.574 169.702 182.597 168.103 181.905C166.534 181.183 164.873 180.821 163.123 180.821C160.8 180.821 158.641 181.439 156.649 182.671C154.658 183.876 153.073 185.499 151.896 187.545C150.72 189.561 150.131 191.757 150.131 194.133C150.131 196.51 150.72 198.722 151.896 200.767C153.073 202.812 154.658 204.451 156.649 205.685C158.641 206.888 160.8 207.491 163.123 207.491C164.873 207.491 166.534 207.13 168.103 206.408C169.702 205.685 171.106 204.693 172.313 203.429L174.305 205.459C172.825 206.934 171.121 208.091 169.19 208.935C167.258 209.777 165.235 210.197 163.123 210.197ZM188.78 191.11C189.444 189.515 190.591 188.236 192.221 187.275C193.851 186.282 195.722 185.786 197.834 185.786V188.358C196.084 188.358 194.515 188.719 193.127 189.441C191.769 190.132 190.697 191.11 189.913 192.374C189.157 193.606 188.78 195.021 188.78 196.615V209.657H185.975V186.326H188.78V191.11ZM217.586 207.625C219.095 207.625 220.573 207.355 222.022 206.813C223.471 206.271 224.604 205.566 225.417 204.692L227.184 206.588C226.188 207.64 224.785 208.513 222.974 209.206C221.163 209.867 219.381 210.197 217.631 210.197C215.579 210.197 213.648 209.657 211.837 208.574C210.026 207.491 208.577 206.017 207.491 204.151C206.435 202.286 205.907 200.21 205.907 197.924C205.907 195.668 206.42 193.623 207.446 191.786C208.472 189.922 209.86 188.463 211.61 187.409C213.391 186.326 215.323 185.786 217.405 185.786C219.699 185.786 221.676 186.342 223.336 187.455C225.025 188.538 226.308 190.088 227.184 192.103C228.089 194.089 228.542 196.419 228.542 199.098H208.758C208.91 200.691 209.377 202.15 210.163 203.475C210.976 204.768 212.018 205.79 213.286 206.542C214.583 207.264 216.017 207.625 217.586 207.625ZM217.496 188.358C215.232 188.358 213.286 189.124 211.656 190.659C210.056 192.164 209.106 194.118 208.804 196.524H225.735C225.554 194.089 224.739 192.118 223.29 190.614C221.841 189.109 219.91 188.358 217.496 188.358ZM245.974 210.197C244.314 210.197 242.624 209.897 240.903 209.296C239.184 208.664 237.645 207.806 236.286 206.723L237.78 204.648C240.557 206.632 243.289 207.625 245.974 207.625C247.573 207.625 248.901 207.264 249.958 206.542C251.044 205.79 251.587 204.858 251.587 203.745C251.587 202.572 251.075 201.655 250.049 200.992C249.053 200.301 247.499 199.639 245.386 199.007C242.548 198.195 240.526 197.292 239.319 196.299C238.142 195.277 237.554 193.953 237.554 192.328C237.554 191.064 237.901 189.937 238.595 188.944C239.319 187.951 240.286 187.184 241.492 186.643C242.729 186.072 244.102 185.786 245.612 185.786C247.031 185.786 248.464 186.026 249.912 186.507C251.361 186.958 252.719 187.59 253.987 188.402L252.583 190.568C250.169 189.095 247.844 188.358 245.612 188.358C244.133 188.358 242.88 188.704 241.855 189.395C240.859 190.056 240.361 190.93 240.361 192.013C240.361 193.035 240.813 193.862 241.718 194.494C242.655 195.096 244.329 195.787 246.743 196.57C248.404 197.082 249.761 197.608 250.818 198.149C251.905 198.691 252.764 199.398 253.398 200.271C254.061 201.113 254.394 202.18 254.394 203.475C254.394 204.768 254.017 205.927 253.263 206.949C252.538 207.972 251.527 208.769 250.23 209.34C248.962 209.912 247.543 210.197 245.974 210.197ZM275.582 210.197C273.409 210.197 271.402 209.657 269.561 208.574C267.72 207.491 266.256 206.017 265.17 204.151C264.113 202.255 263.586 200.196 263.586 197.969C263.586 195.743 264.113 193.697 265.17 191.832C266.256 189.966 267.72 188.492 269.561 187.409C271.402 186.326 273.409 185.786 275.582 185.786C277.121 185.786 278.6 186.086 280.017 186.687C281.437 187.289 282.704 188.131 283.821 189.215L281.828 191.11C281.014 190.237 280.063 189.561 278.977 189.08C277.89 188.597 276.759 188.358 275.582 188.358C273.922 188.358 272.398 188.794 271.01 189.666C269.622 190.508 268.52 191.666 267.705 193.14C266.92 194.584 266.528 196.194 266.528 197.969C266.528 199.744 266.92 201.369 267.705 202.843C268.52 204.317 269.622 205.49 271.01 206.362C272.398 207.205 273.922 207.625 275.582 207.625C276.789 207.625 277.936 207.386 279.021 206.903C280.139 206.393 281.119 205.685 281.965 204.783L283.911 206.678C282.795 207.791 281.512 208.664 280.063 209.296C278.644 209.897 277.151 210.197 275.582 210.197ZM294.57 186.326H297.375V209.657H294.57V186.326ZM295.973 181.769C295.429 181.769 294.962 181.588 294.57 181.227C294.208 180.836 294.026 180.37 294.026 179.829C294.026 179.318 294.208 178.867 294.57 178.475C294.962 178.084 295.429 177.889 295.973 177.889C296.486 177.889 296.939 178.084 297.331 178.475C297.723 178.867 297.919 179.318 297.919 179.829C297.919 180.37 297.723 180.836 297.331 181.227C296.939 181.588 296.486 181.769 295.973 181.769ZM334.027 185.786C335.626 185.786 337.045 186.162 338.283 186.914C339.52 187.665 340.486 188.719 341.179 190.073C341.874 191.425 342.221 192.96 342.221 194.675V209.657H339.414V195.036C339.414 193.081 338.871 191.486 337.784 190.253C336.729 188.99 335.356 188.358 333.665 188.358C331.733 188.358 330.15 188.944 328.911 190.117C327.705 191.291 327.1 192.81 327.1 194.675V209.657H324.293V195.036C324.293 193.081 323.751 191.486 322.665 190.253C321.608 188.99 320.235 188.358 318.545 188.358C316.613 188.358 315.029 188.944 313.792 190.117C312.584 191.291 311.981 192.81 311.981 194.675V209.657H309.174V186.326H311.981V189.712C312.554 188.507 313.445 187.56 314.652 186.868C315.89 186.146 317.307 185.786 318.908 185.786C320.446 185.786 321.819 186.146 323.027 186.868C324.264 187.59 325.23 188.583 325.923 189.846C326.769 188.553 327.886 187.56 329.274 186.868C330.691 186.146 332.277 185.786 334.027 185.786ZM364.57 207.625C366.08 207.625 367.558 207.355 369.007 206.813C370.456 206.271 371.587 205.566 372.402 204.692L374.167 206.588C373.171 207.64 371.768 208.513 369.957 209.206C368.146 209.867 366.366 210.197 364.616 210.197C362.563 210.197 360.632 209.657 358.821 208.574C357.011 207.491 355.562 206.017 354.476 204.151C353.419 202.286 352.89 200.21 352.89 197.924C352.89 195.668 353.404 193.623 354.43 191.786C355.457 189.922 356.845 188.463 358.595 187.409C360.375 186.326 362.306 185.786 364.389 185.786C366.682 185.786 368.66 186.342 370.319 187.455C372.01 188.538 373.293 190.088 374.167 192.103C375.073 194.089 375.525 196.419 375.525 199.098H355.743C355.893 200.691 356.361 202.15 357.146 203.475C357.961 204.768 359.002 205.79 360.269 206.542C361.567 207.264 363.001 207.625 364.57 207.625ZM364.479 188.358C362.217 188.358 360.269 189.124 358.64 190.659C357.041 192.164 356.089 194.118 355.788 196.524H372.718C372.537 194.089 371.724 192.118 370.275 190.614C368.826 189.109 366.895 188.358 364.479 188.358ZM396.808 185.786C398.498 185.786 400.007 186.162 401.334 186.914C402.663 187.665 403.689 188.719 404.413 190.073C405.167 191.396 405.544 192.93 405.544 194.675V209.657H402.739V195.036C402.739 193.05 402.149 191.442 400.972 190.207C399.795 188.975 398.272 188.358 396.4 188.358C395.042 188.358 393.805 188.643 392.689 189.215C391.571 189.786 390.697 190.568 390.063 191.561C389.429 192.523 389.113 193.606 389.113 194.811V209.657H386.306V186.326H389.113V190.117C389.745 188.824 390.758 187.785 392.146 187.004C393.534 186.191 395.088 185.786 396.808 185.786ZM428.963 208.708C428.361 209.189 427.681 209.55 426.927 209.792C426.173 210.062 425.402 210.197 424.618 210.197C423.048 210.197 421.75 209.641 420.725 208.528C419.699 207.415 419.185 205.986 419.185 204.241V188.899H415.383V186.326H419.185V179.919H421.992V186.326H427.877V188.899H421.992V204.241C421.992 205.234 422.264 206.046 422.807 206.678C423.351 207.31 424.014 207.625 424.799 207.625C425.343 207.625 425.84 207.535 426.293 207.355C426.775 207.174 427.184 206.934 427.515 206.632L428.963 208.708ZM448.933 210.197C446.759 210.197 444.737 209.641 442.866 208.528C441.025 207.415 439.561 205.927 438.474 204.061C437.388 202.196 436.844 200.165 436.844 197.969C436.844 195.773 437.388 193.743 438.474 191.877C439.561 190.012 441.025 188.538 442.866 187.455C444.737 186.342 446.759 185.786 448.933 185.786C451.104 185.786 453.111 186.342 454.954 187.455C456.824 188.538 458.303 190.012 459.389 191.877C460.476 193.743 461.019 195.773 461.019 197.969C461.019 200.165 460.476 202.196 459.389 204.061C458.303 205.927 456.824 207.415 454.954 208.528C453.111 209.641 451.104 210.197 448.933 210.197ZM448.933 207.625C450.592 207.625 452.117 207.189 453.505 206.317C454.922 205.444 456.039 204.271 456.854 202.797C457.7 201.323 458.121 199.713 458.121 197.969C458.121 196.254 457.7 194.66 456.854 193.186C456.039 191.712 454.922 190.539 453.505 189.666C452.117 188.794 450.592 188.358 448.933 188.358C447.273 188.358 445.734 188.794 444.314 189.666C442.926 190.539 441.81 191.712 440.965 193.186C440.15 194.66 439.742 196.254 439.742 197.969C439.742 199.713 440.15 201.323 440.965 202.797C441.81 204.271 442.926 205.444 444.314 206.317C445.734 207.189 447.273 207.625 448.933 207.625ZM514.646 209.972L510.345 205.64C507.568 208.679 504.43 210.197 500.929 210.197C499.118 210.197 497.458 209.838 495.949 209.115C494.47 208.362 493.293 207.325 492.419 206.001C491.573 204.648 491.151 203.114 491.151 201.399C491.151 197.488 493.594 194.494 498.484 192.418C497.488 191.064 496.764 189.861 496.311 188.809C495.858 187.726 495.633 186.643 495.633 185.56C495.633 184.237 495.964 183.017 496.629 181.905C497.292 180.792 498.198 179.919 499.344 179.287C500.491 178.626 501.789 178.294 503.237 178.294C504.565 178.294 505.773 178.626 506.86 179.287C507.976 179.919 508.85 180.792 509.484 181.905C510.149 183.017 510.48 184.206 510.48 185.469C510.48 187.335 509.832 188.839 508.534 189.983C507.266 191.095 505.335 192.193 502.739 193.276C505.063 195.983 507.568 198.737 510.255 201.533C511.582 199.639 512.864 197.232 514.102 194.314L516.592 195.397C514.993 198.766 513.498 201.443 512.11 203.429L515.143 206.498L517.316 208.708L514.646 209.972ZM503.237 180.867C501.85 180.867 500.702 181.302 499.797 182.175C498.891 183.047 498.438 184.176 498.438 185.56C498.438 186.402 498.65 187.289 499.072 188.222C499.525 189.124 500.22 190.178 501.155 191.381C503.509 190.418 505.184 189.531 506.18 188.719C507.176 187.875 507.673 186.808 507.673 185.515C507.673 184.22 507.251 183.122 506.407 182.22C505.561 181.317 504.505 180.867 503.237 180.867ZM501.02 207.625C503.705 207.625 506.209 206.332 508.534 203.745C504.731 199.835 501.894 196.705 500.024 194.36C495.98 196.163 493.957 198.495 493.957 201.353C493.957 202.557 494.274 203.64 494.908 204.602C495.542 205.566 496.401 206.317 497.488 206.859C498.575 207.369 499.752 207.625 501.02 207.625ZM562.057 178.655C564.169 178.655 566.071 179.077 567.76 179.919C569.481 180.761 570.824 181.934 571.789 183.439C572.785 184.913 573.282 186.582 573.282 188.448C573.282 190.312 572.785 191.998 571.789 193.501C570.824 194.975 569.481 196.134 567.76 196.976C566.071 197.788 564.169 198.195 562.057 198.195H552.188V209.657H549.29V178.655H562.057ZM561.513 195.443C564.169 195.443 566.296 194.811 567.897 193.547C569.525 192.283 570.34 190.583 570.34 188.448C570.34 186.311 569.525 184.613 567.897 183.349C566.296 182.056 564.169 181.407 561.513 181.407H552.188V195.443H561.513ZM594.184 207.625C595.693 207.625 597.172 207.355 598.621 206.813C600.068 206.271 601.201 205.566 602.016 204.692L603.781 206.588C602.785 207.64 601.382 208.513 599.571 209.206C597.76 209.867 595.98 210.197 594.23 210.197C592.177 210.197 590.245 209.657 588.434 208.574C586.623 207.491 585.174 206.017 584.089 204.151C583.032 202.286 582.504 200.21 582.504 197.924C582.504 195.668 583.017 193.623 584.043 191.786C585.069 189.922 586.457 188.463 588.209 187.409C589.989 186.326 591.92 185.786 594.003 185.786C596.296 185.786 598.273 186.342 599.933 187.455C601.622 188.538 602.905 190.088 603.781 192.103C604.686 194.089 605.139 196.419 605.139 199.098H585.356C585.507 200.691 585.975 202.15 586.76 203.475C587.575 204.768 588.615 205.79 589.883 206.542C591.181 207.264 592.615 207.625 594.184 207.625ZM594.093 188.358C591.829 188.358 589.883 189.124 588.253 190.659C586.654 192.164 585.703 194.118 585.402 196.524H602.332C602.151 194.089 601.336 192.118 599.887 190.614C598.44 189.109 596.507 188.358 594.093 188.358ZM618.725 191.11C619.39 189.515 620.536 188.236 622.166 187.275C623.796 186.282 625.666 185.786 627.779 185.786V188.358C626.029 188.358 624.459 188.719 623.071 189.441C621.713 190.132 620.641 191.11 619.858 192.374C619.102 193.606 618.725 195.021 618.725 196.615V209.657H615.919V186.326H618.725V191.11ZM643.913 186.326H649.934V188.899H643.913V209.657H641.106V188.899H637.305V186.326H641.106V183.122C641.106 181.378 641.605 179.948 642.6 178.836C643.627 177.723 644.939 177.167 646.54 177.167C648.109 177.167 649.557 177.662 650.885 178.655L649.436 180.731C648.772 180.07 647.867 179.738 646.721 179.738C645.935 179.738 645.272 180.055 644.728 180.687C644.185 181.317 643.913 182.13 643.913 183.122V186.326ZM669.969 210.197C667.796 210.197 665.774 209.641 663.903 208.528C662.063 207.415 660.597 205.927 659.512 204.061C658.426 202.196 657.882 200.165 657.882 197.969C657.882 195.773 658.426 193.743 659.512 191.877C660.597 190.012 662.063 188.538 663.903 187.455C665.774 186.342 667.796 185.786 669.969 185.786C672.142 185.786 674.149 186.342 675.99 187.455C677.86 188.538 679.34 190.012 680.426 191.877C681.512 193.743 682.055 195.773 682.055 197.969C682.055 200.165 681.512 202.196 680.426 204.061C679.34 205.927 677.86 207.415 675.99 208.528C674.149 209.641 672.142 210.197 669.969 210.197ZM669.969 207.625C671.629 207.625 673.153 207.189 674.541 206.317C675.96 205.444 677.077 204.271 677.892 202.797C678.736 201.323 679.159 199.713 679.159 197.969C679.159 196.254 678.736 194.66 677.892 193.186C677.077 191.712 675.96 190.539 674.541 189.666C673.153 188.794 671.629 188.358 669.969 188.358C668.309 188.358 666.77 188.794 665.352 189.666C663.963 190.539 662.846 191.712 662.002 193.186C661.187 194.66 660.779 196.254 660.779 197.969C660.779 199.713 661.187 201.323 662.002 202.797C662.846 204.271 663.963 205.444 665.352 206.317C666.77 207.189 668.309 207.625 669.969 207.625ZM695.784 191.11C696.447 189.515 697.595 188.236 699.225 187.275C700.855 186.282 702.725 185.786 704.838 185.786V188.358C703.087 188.358 701.518 188.719 700.13 189.441C698.772 190.132 697.7 191.11 696.917 192.374C696.161 193.606 695.784 195.021 695.784 196.615V209.657H692.978V186.326H695.784V191.11ZM740.392 185.786C741.992 185.786 743.41 186.162 744.648 186.914C745.885 187.665 746.851 188.719 747.546 190.073C748.239 191.425 748.587 192.96 748.587 194.675V209.657H745.779V195.036C745.779 193.081 745.236 191.486 744.149 190.253C743.094 188.99 741.721 188.358 740.03 188.358C738.099 188.358 736.515 188.944 735.277 190.117C734.07 191.291 733.466 192.81 733.466 194.675V209.657H730.66V195.036C730.66 193.081 730.117 191.486 729.03 190.253C727.973 188.99 726.6 188.358 724.911 188.358C722.979 188.358 721.394 188.944 720.157 190.117C718.951 191.291 718.346 192.81 718.346 194.675V209.657H715.539V186.326H718.346V189.712C718.919 188.507 719.81 187.56 721.017 186.868C722.255 186.146 723.673 185.786 725.273 185.786C726.812 185.786 728.185 186.146 729.392 186.868C730.629 187.59 731.595 188.583 732.29 189.846C733.135 188.553 734.251 187.56 735.639 186.868C737.058 186.146 738.642 185.786 740.392 185.786ZM769.669 185.786C772.656 185.786 774.966 186.672 776.594 188.448C778.224 190.193 779.039 192.523 779.039 195.443V209.657H776.233V205.956C775.418 207.279 774.195 208.318 772.565 209.07C770.937 209.821 769.292 210.197 767.631 210.197C765.156 210.197 763.12 209.521 761.521 208.167C759.921 206.783 759.12 204.978 759.12 202.753C759.12 201.248 759.529 199.91 760.344 198.737C761.159 197.563 762.26 196.646 763.648 195.983C765.066 195.321 766.651 194.991 768.401 194.991C770.756 194.991 773.365 195.458 776.233 196.39V195.443C776.233 193.426 775.705 191.727 774.648 190.344C773.592 188.959 771.857 188.268 769.442 188.268C767.33 188.268 765.021 188.959 762.515 190.344L761.384 188.041C764.221 186.538 766.982 185.786 769.669 185.786ZM768.084 207.671C769.895 207.671 771.6 207.205 773.199 206.271C774.799 205.339 775.81 204.031 776.233 202.346V198.6C773.667 197.819 771.192 197.427 768.808 197.427C766.847 197.427 765.202 197.924 763.874 198.917C762.547 199.879 761.881 201.113 761.881 202.616C761.881 204.151 762.471 205.385 763.648 206.317C764.825 207.22 766.304 207.671 768.084 207.671ZM801.095 185.786C802.786 185.786 804.294 186.162 805.623 186.914C806.95 187.665 807.977 188.719 808.702 190.073C809.456 191.396 809.833 192.93 809.833 194.675V209.657H807.026V195.036C807.026 193.05 806.438 191.442 805.261 190.207C804.083 188.975 802.559 188.358 800.688 188.358C799.33 188.358 798.092 188.643 796.976 189.215C795.86 189.786 794.984 190.568 794.351 191.561C793.717 192.523 793.4 193.606 793.4 194.811V209.657H790.593V186.326H793.4V190.117C794.034 188.824 795.044 187.785 796.432 187.004C797.822 186.191 799.376 185.786 801.095 185.786ZM832.424 210.197C830.252 210.197 828.245 209.657 826.403 208.574C824.562 207.491 823.098 206.017 822.011 204.151C820.956 202.255 820.427 200.196 820.427 197.969C820.427 195.743 820.956 193.697 822.011 191.832C823.098 189.966 824.562 188.492 826.403 187.409C828.245 186.326 830.252 185.786 832.424 185.786C833.963 185.786 835.441 186.086 836.861 186.687C838.278 187.289 839.546 188.131 840.662 189.215L838.672 191.11C837.857 190.237 836.905 189.561 835.819 189.08C834.733 188.597 833.601 188.358 832.424 188.358C830.764 188.358 829.239 188.794 827.851 189.666C826.463 190.508 825.362 191.666 824.547 193.14C823.763 194.584 823.37 196.194 823.37 197.969C823.37 199.744 823.763 201.369 824.547 202.843C825.362 204.317 826.463 205.49 827.851 206.362C829.239 207.205 830.764 207.625 832.424 207.625C833.63 207.625 834.778 207.386 835.865 206.903C836.981 206.393 837.962 205.685 838.807 204.783L840.753 206.678C839.637 207.791 838.354 208.664 836.905 209.296C835.488 209.897 833.993 210.197 832.424 210.197ZM862.186 207.625C863.695 207.625 865.174 207.355 866.623 206.813C868.07 206.271 869.203 205.566 870.018 204.692L871.783 206.588C870.787 207.64 869.384 208.513 867.573 209.206C865.762 209.867 863.982 210.197 862.232 210.197C860.179 210.197 858.247 209.657 856.436 208.574C854.625 207.491 853.176 206.017 852.091 204.151C851.034 202.286 850.506 200.21 850.506 197.924C850.506 195.668 851.02 193.623 852.045 191.786C853.071 189.922 854.461 188.463 856.211 187.409C857.991 186.326 859.922 185.786 862.005 185.786C864.298 185.786 866.276 186.342 867.935 187.455C869.624 188.538 870.907 190.088 871.783 192.103C872.688 194.089 873.141 196.419 873.141 199.098H853.358C853.509 200.691 853.977 202.15 854.762 203.475C855.577 204.768 856.617 205.79 857.885 206.542C859.183 207.264 860.617 207.625 862.186 207.625ZM862.095 188.358C859.831 188.358 857.885 189.124 856.255 190.659C854.656 192.164 853.705 194.118 853.404 196.524H870.334C870.153 194.089 869.338 192.118 867.889 190.614C866.442 189.109 864.509 188.358 862.095 188.358ZM914.448 178.655C917.647 178.655 920.499 179.318 923.005 180.641C925.509 181.965 927.455 183.8 928.843 186.146C930.262 188.492 930.972 191.154 930.972 194.133C930.972 197.112 930.262 199.789 928.843 202.165C927.455 204.512 925.509 206.347 923.005 207.671C920.499 208.994 917.647 209.657 914.448 209.657H903.901V178.655H914.448ZM914.448 206.993C917.074 206.993 919.412 206.452 921.465 205.369C923.548 204.256 925.161 202.738 926.309 200.811C927.455 198.856 928.03 196.631 928.03 194.133C928.03 191.666 927.44 189.471 926.263 187.545C925.117 185.589 923.517 184.071 921.465 182.988C919.412 181.875 917.074 181.317 914.448 181.317H906.797V206.993H914.448ZM942.883 186.326H945.689V209.657H942.883V186.326ZM944.286 181.769C943.743 181.769 943.275 181.588 942.883 181.227C942.521 180.836 942.34 180.37 942.34 179.829C942.34 179.318 942.521 178.867 942.883 178.475C943.275 178.084 943.743 177.889 944.286 177.889C944.8 177.889 945.251 178.084 945.644 178.475C946.036 178.867 946.232 179.318 946.232 179.829C946.232 180.37 946.036 180.836 945.644 181.227C945.251 181.588 944.8 181.769 944.286 181.769ZM978.899 186.326V207.174C978.899 209.16 978.417 210.919 977.451 212.454C976.515 214.018 975.188 215.237 973.468 216.109C971.777 216.982 969.846 217.418 967.672 217.418C965.863 217.418 964.096 217.133 962.376 216.56C960.686 215.989 959.298 215.237 958.212 214.305L959.479 212.048C960.444 212.92 961.622 213.598 963.01 214.078C964.429 214.59 965.878 214.846 967.356 214.846C970.042 214.846 972.17 214.154 973.739 212.77C975.308 211.416 976.092 209.55 976.092 207.174V202.933C975.188 204.527 973.95 205.761 972.381 206.632C970.842 207.505 969.106 207.942 967.175 207.942C965.183 207.942 963.372 207.46 961.742 206.498C960.143 205.534 958.875 204.212 957.94 202.526C957.035 200.842 956.582 198.947 956.582 196.841C956.582 194.765 957.035 192.884 957.94 191.2C958.875 189.515 960.143 188.192 961.742 187.229C963.372 186.267 965.183 185.786 967.175 185.786C969.136 185.786 970.886 186.221 972.426 187.094C973.965 187.936 975.188 189.155 976.092 190.749V186.326H978.899ZM967.672 205.369C969.273 205.369 970.707 205.009 971.973 204.287C973.272 203.565 974.283 202.557 975.007 201.262C975.73 199.969 976.092 198.495 976.092 196.841C976.092 195.216 975.73 193.757 975.007 192.464C974.283 191.171 973.272 190.163 971.973 189.441C970.707 188.719 969.273 188.358 967.672 188.358C966.133 188.358 964.73 188.734 963.462 189.485C962.226 190.207 961.245 191.215 960.52 192.508C959.825 193.803 959.479 195.246 959.479 196.841C959.479 198.435 959.825 199.894 960.52 201.218C961.245 202.511 962.226 203.534 963.462 204.287C964.73 205.009 966.133 205.369 967.672 205.369ZM990.748 186.326H993.554V209.657H990.748V186.326ZM992.151 181.769C991.608 181.769 991.14 181.588 990.748 181.227C990.386 180.836 990.205 180.37 990.205 179.829C990.205 179.318 990.386 178.867 990.748 178.475C991.14 178.084 991.608 177.889 992.151 177.889C992.665 177.889 993.116 178.084 993.51 178.475C993.901 178.867 994.097 179.318 994.097 179.829C994.097 180.37 993.901 180.836 993.51 181.227C993.116 181.588 992.665 181.769 992.151 181.769ZM1017.76 208.708C1017.15 209.189 1016.47 209.55 1015.72 209.792C1014.96 210.062 1014.2 210.197 1013.41 210.197C1011.84 210.197 1010.54 209.641 1009.52 208.528C1008.49 207.415 1007.98 205.986 1007.98 204.241V188.899H1004.18V186.326H1007.98V179.919H1010.78V186.326H1016.67V188.899H1010.78V204.241C1010.78 205.234 1011.06 206.046 1011.6 206.678C1012.14 207.31 1012.81 207.625 1013.59 207.625C1014.13 207.625 1014.63 207.535 1015.08 207.355C1015.57 207.174 1015.98 206.934 1016.31 206.632L1017.76 208.708ZM1034.64 185.786C1037.62 185.786 1039.93 186.672 1041.56 188.448C1043.19 190.193 1044.01 192.523 1044.01 195.443V209.657H1041.2V205.956C1040.39 207.279 1039.16 208.318 1037.53 209.07C1035.9 209.821 1034.26 210.197 1032.6 210.197C1030.12 210.197 1028.09 209.521 1026.49 208.167C1024.89 206.783 1024.09 204.978 1024.09 202.753C1024.09 201.248 1024.5 199.91 1025.31 198.737C1026.12 197.563 1027.23 196.646 1028.62 195.983C1030.03 195.321 1031.62 194.991 1033.37 194.991C1035.72 194.991 1038.33 195.458 1041.2 196.39V195.443C1041.2 193.426 1040.67 191.727 1039.62 190.344C1038.56 188.959 1036.82 188.268 1034.41 188.268C1032.3 188.268 1029.99 188.959 1027.48 190.344L1026.35 188.041C1029.19 186.538 1031.95 185.786 1034.64 185.786ZM1033.05 207.671C1034.86 207.671 1036.57 207.205 1038.17 206.271C1039.77 205.339 1040.78 204.031 1041.2 202.346V198.6C1038.63 197.819 1036.16 197.427 1033.78 197.427C1031.81 197.427 1030.17 197.924 1028.84 198.917C1027.51 199.879 1026.85 201.113 1026.85 202.616C1026.85 204.151 1027.44 205.385 1028.62 206.317C1029.79 207.22 1031.27 207.671 1033.05 207.671ZM1055.61 178.114H1058.41V209.657H1055.61V178.114Z" fill="black"/>
<path d="M526.611 7.93566L472.576 121.859C470.532 126.604 467.746 130.997 464.32 134.874C462.124 137.319 459.427 139.266 456.408 140.583C453.568 141.606 450.559 142.084 447.539 141.991C444.795 142.217 442.034 141.834 439.457 140.87C436.879 139.906 434.549 138.384 432.637 136.416C429.136 133.098 426.105 129.321 423.634 125.189L379.578 43.3666C375.747 36.8399 371.571 30.4843 367.451 24.1289C364.237 18.8063 360.455 13.8431 356.169 9.3247C356.169 9.3247 354.351 7.51701 353.641 6.66073C353.482 6.44026 353.377 6.18626 353.335 5.91865C353.298 5.75982 353.295 5.59536 353.323 5.43499C353.352 5.27461 353.413 5.12155 353.502 4.98494C353.592 4.84832 353.707 4.7309 353.844 4.6396C353.979 4.54831 354.132 4.48498 354.292 4.45342C354.484 4.43447 354.676 4.43447 354.868 4.45342C354.868 4.45342 358.027 4.75786 361.227 5.3858C367.149 6.51319 372.986 8.04545 378.696 9.97167C385.933 12.8174 392.728 16.6608 398.885 21.3887C404.388 25.8464 409.136 31.1531 412.946 37.1062C415.972 41.8824 418.692 46.906 421.392 51.8153L447.366 98.8156C447.884 99.3673 448.382 98.2637 448.63 97.807L492.688 7.5931C492.88 7.06816 493.242 6.62117 493.715 6.32172C494.191 6.02227 494.752 5.88721 495.312 5.93765L525.5 6.0899C527.032 5.9567 527.34 6.43241 526.611 7.93566Z" fill="black"/>
<path d="M193.888 36.2633V35.6739C193.888 18.3883 208.077 4.04901 225.419 4.04901H345.624V4.83472C345.624 22.1205 331.435 36.2633 314.093 36.2633C273.894 36.2633 233.892 36.2633 193.888 36.2633ZM231.527 88.906C228.572 88.906 226.009 91.4596 226.009 94.6024V109.531H345.624C345.624 127.602 331.633 141.745 314.093 141.745C273.894 141.745 233.892 141.745 193.888 141.745V88.3168C193.888 71.031 208.077 56.8882 225.419 56.8882C265.421 56.8882 305.62 56.8882 345.624 56.8882C345.624 74.9595 331.633 88.906 314.093 88.906H231.527Z" fill="black"/>
<path d="M1175.41 79.601C1173.34 76.3272 1170.82 73.3656 1167.92 70.8052C1165.11 68.3281 1161.96 66.269 1158.57 64.6913C1153.97 62.539 1148.99 61.3459 1143.92 61.1842H1091.53C1088.89 60.9532 1086.37 59.9378 1084.3 58.2677C1082.24 56.5976 1080.72 54.3484 1079.93 51.8071C1079.64 50.4365 1079.64 49.0192 1079.94 47.6497C1080.24 46.2804 1080.82 44.9902 1081.65 43.8652C1082.49 42.7402 1083.55 41.806 1084.77 41.1253C1086 40.4445 1087.35 40.0326 1088.74 39.9169L1164.11 39.5794C1165.15 39.5105 1166.13 39.0715 1166.87 38.3414L1193.27 10.3414C1193.39 10.2186 1193.47 10.0632 1193.5 9.89491C1193.53 9.72663 1193.51 9.5531 1193.44 9.39633C1193.38 9.23958 1193.26 9.10668 1193.12 9.01448C1192.98 8.92228 1192.81 8.87496 1192.64 8.87855H1189.14L1089.38 9.00984C1082.65 8.96307 1075.97 10.2373 1069.73 12.7607C1064.35 14.9367 1059.54 18.3549 1055.72 22.7379C1051.64 27.4296 1048.77 33.0505 1047.36 39.1104C1045.34 47.4614 1046.04 56.2379 1049.34 64.1661C1050.62 67.0291 1052.12 69.7881 1053.83 72.4181C1055.87 75.6553 1058.47 78.5058 1061.5 80.8387C1064.87 83.6726 1068.79 85.7568 1073.03 86.9527L1074.06 87.2528C1077.03 87.9943 1080.07 88.4032 1083.13 88.4717L1137.59 89.6533C1139.53 89.7754 1141.42 90.3684 1143.08 91.3811C1144.74 92.3938 1146.13 93.796 1147.14 95.4671C1148.34 97.5516 1148.88 99.9506 1148.69 102.35C1148.51 104.749 1147.61 107.037 1146.11 108.914C1145.1 110.104 1143.85 111.057 1142.44 111.706C1141.02 112.354 1139.48 112.682 1137.93 112.665H1053.55C1053.01 112.586 1052.46 112.678 1051.97 112.927C1051.49 113.175 1051.09 113.568 1050.84 114.053L1030.56 140.496C1030.33 140.815 1030.12 141.471 1030.28 141.659C1030.64 141.93 1031.08 142.069 1031.53 142.053L1139.86 141.584C1146.81 141.163 1153.6 139.243 1159.75 135.958C1164.63 133.14 1168.91 129.372 1172.32 124.874C1175.61 120.796 1177.97 116.047 1179.24 110.958C1180.41 106.494 1180.84 101.87 1180.51 97.2675C1180.34 91.0384 1178.58 84.9571 1175.41 79.601Z" fill="black"/>
<path d="M1019.81 60.5495C1014.85 35.0998 991.291 14.5687 965.519 11.6064C961.647 11.3642 957.793 10.3581 953.939 10.3581L895.402 10.8239C895.129 10.8421 894.861 10.9141 894.615 11.0356C894.371 11.1571 894.152 11.3258 893.974 11.5318L867.074 39.7016C866.996 39.8002 866.949 39.918 866.935 40.0419C866.922 40.1658 866.944 40.291 866.999 40.4031C867.055 40.5153 867.138 40.6102 867.244 40.6772C867.352 40.7441 867.474 40.7804 867.599 40.7822H947.999C953.997 40.7822 960.989 40.3537 966.798 42.5335C1000.13 52.5196 993.998 103.214 961.609 110.536C955.845 111.958 949.916 112.622 943.977 112.511H920.497C918.467 112.511 918.242 112.25 918.242 110.256L918.504 66.474C918.504 65.4493 918.016 65.2444 917.152 65.2444H886.529C885.514 65.2444 885.1 65.6729 885.175 66.6417L885.006 139.525C885.006 141.984 885.006 142.022 887.488 142.022C907.326 142.022 927.164 142.022 947.002 142.022C956.469 142.289 965.909 140.889 974.881 137.886C1006.69 127.732 1027.2 93.0974 1019.81 60.5495Z" fill="black"/>
<path d="M857.659 138.633L805.007 27.1594C803.017 22.5169 800.303 18.2184 796.963 14.4239C794.825 12.032 792.197 10.127 789.256 8.83814C786.489 7.83745 783.556 7.36993 780.614 7.46032C777.94 7.23923 775.249 7.61398 772.739 8.55749C770.227 9.50101 767.957 10.9897 766.094 12.9158C762.681 16.1619 759.73 19.8577 757.322 23.9011L714.394 103.964C710.661 110.35 706.593 116.569 702.58 122.788C699.447 127.996 695.761 132.852 691.587 137.274C691.587 137.274 689.813 139.042 689.124 139.88C688.969 140.096 688.866 140.345 688.824 140.606C688.789 140.762 688.786 140.923 688.814 141.08C688.842 141.237 688.9 141.386 688.988 141.52C689.075 141.654 689.188 141.769 689.319 141.858C689.452 141.947 689.601 142.009 689.758 142.04C689.945 142.059 690.132 142.059 690.317 142.04C690.317 142.04 693.397 141.742 696.515 141.128C702.285 140.025 707.972 138.525 713.536 136.641C720.586 133.856 727.209 130.095 733.208 125.469C738.57 121.107 743.195 115.915 746.906 110.09C749.856 105.416 752.506 100.501 755.138 95.6969L780.446 49.7074C780.95 49.1674 781.435 50.2473 781.677 50.6942L824.604 138.968C824.793 139.482 825.145 139.919 825.607 140.212C826.07 140.505 826.616 140.637 827.161 140.588L856.576 140.439C858.069 140.569 858.367 140.104 857.659 138.633Z" fill="black"/>
<path d="M9.81439 4.04901H135.931C161.549 4.04901 182.437 25.0668 182.437 50.6024C182.437 76.1381 161.549 96.9596 135.931 96.9596H126.007L152.019 141.745H114.775L70.2396 66.1938H135.931C154.848 66.1938 154.848 36.2633 135.931 36.2633H46.2701C34.6436 36.2633 24.5937 30.5668 18.8791 20.549L9.81439 4.04901Z" fill="black"/>
<path d="M0 92.8548V93.3529H95.8323C109.657 93.3529 120.969 81.399 120.969 66.7886V66.1245H25.1364C11.3114 66.1245 0 78.2445 0 92.8548Z" fill="black"/>
<path d="M42.9244 93.3525H11.7067V141.974H35.1199C39.4302 141.974 42.9244 138.491 42.9244 134.195V93.3525Z" fill="black"/>
<path d="M670.71 90.2635C674.401 87.8526 673.931 81.4263 673.931 77.5634C673.931 64.7007 669.279 52.3292 658.901 43.9423C640.131 28.7735 614.757 34.677 595.023 44.0889C589.578 46.6861 577.419 53.9723 573.071 46.3342C570.888 42.4998 574.364 37.9912 576.866 35.2294C583.22 28.2121 591.856 23.4596 600.928 20.7941C618.211 15.7161 639.761 17.5619 654.07 29.1254C657.575 31.957 660.604 35.4136 663.375 38.9337C665.247 41.3118 666.662 43.9582 669.1 45.8129C667.596 39.5734 663.211 33.8213 659.223 28.8794C641.429 6.83074 611.099 0.0540848 584.288 7.12237C564.285 12.3958 546.863 30.5738 547.807 51.6338C548.401 64.8738 559.716 73.9232 573.015 72.0451C595.859 68.8188 614.71 51.5963 638.503 52.1709C657.491 52.6292 675.743 71.0884 670.71 90.2635Z" fill="#126BFF"/>
<path d="M539.797 63.6284C534.692 84.7076 551.212 107.566 572.595 111.035C585.188 113.078 598.084 109.359 609.694 104.757C616.875 101.91 624.118 98.1204 631.739 96.5557C635.608 95.7611 639.977 96.4637 641.553 100.634C643.176 104.929 638.788 109.539 636.038 112.263C628.639 119.592 618.734 125.131 608.619 127.899C590.158 132.95 569.158 127.452 555.391 114.358C550.541 109.744 547.451 104.167 544.098 98.519C543.827 101.445 545.943 104.981 547.34 107.506C551.344 114.749 556.43 120.992 562.916 126.213C585.016 143.998 617.898 147.74 642.492 132.656C656.472 124.083 670.835 105.966 662.659 89.0034C661.425 86.4453 659.629 84.1198 657.539 82.1802C642.027 67.7851 620.771 79.0516 604.855 86.1968C586.162 94.5891 560.411 98.9398 545.996 80.5451C543.634 77.5312 541.971 73.6658 541.102 69.9721C540.613 67.8908 540.635 65.5743 539.797 63.6284Z" fill="#E61D5E"/>
</svg>
