<svg width="90" height="90" viewBox="0 0 90 90" fill="none" xmlns="http://www.w3.org/2000/svg">
<g clip-path="url(#clip0_32_20)">
<path fill-rule="evenodd" clip-rule="evenodd" d="M14.8822 33.75C17.177 27.6147 21.2908 22.3267 26.6732 18.5933C32.0555 14.86 38.4497 12.8595 45.0001 12.8595C51.5504 12.8595 57.9446 14.86 63.3269 18.5933C68.7093 22.3267 72.8231 27.6147 75.1179 33.75H14.8822ZM12.8958 43.3929C12.4966 51.35 15.0668 59.1718 20.1078 65.3413C25.1489 71.5108 32.3016 75.5882 40.1786 76.7829V58.7764L26.7172 43.3929H12.8958ZM49.8215 76.7829C57.6985 75.5882 64.8512 71.5108 69.8923 65.3413C74.9334 59.1718 77.5035 51.35 77.1043 43.3929H63.2829L49.8215 58.7764V76.7829ZM45.0001 0C33.0653 0 21.6194 4.74106 13.1803 13.1802C4.74112 21.6193 6.10352e-05 33.0653 6.10352e-05 45C6.10352e-05 56.9347 4.74112 68.3807 13.1803 76.8198C21.6194 85.2589 33.0653 90 45.0001 90C56.9348 90 68.3807 85.2589 76.8199 76.8198C85.259 68.3807 90.0001 56.9347 90.0001 45C90.0001 33.0653 85.259 21.6193 76.8199 13.1802C68.3807 4.74106 56.9348 0 45.0001 0Z" fill="#F6F3EF"/>
</g>
<defs>
<clipPath id="clip0_32_20">
<rect width="90" height="90" fill="white"/>
</clipPath>
</defs>
</svg>
