<svg width="70" height="70" viewBox="0 0 70 70" fill="none" xmlns="http://www.w3.org/2000/svg">
<path d="M1.25 51.875V63.125C1.25 64.6168 1.84263 66.0476 2.89752 67.1025C3.95242 68.1574 5.38316 68.75 6.875 68.75H18.125M51.875 68.75H63.125C64.6168 68.75 66.0476 68.1574 67.1025 67.1025C68.1574 66.0476 68.75 64.6168 68.75 63.125V51.875M68.75 18.125V6.875C68.75 5.38316 68.1574 3.95242 67.1025 2.89752C66.0476 1.84263 64.6168 1.25 63.125 1.25H51.875M1.25 18.125V6.875C1.25 5.38316 1.84263 3.95242 2.89752 2.89752C3.95242 1.84263 5.38316 1.25 6.875 1.25H18.125" fill="#F6F3EF"/>
<path d="M1.25 51.875V63.125C1.25 64.6168 1.84263 66.0476 2.89752 67.1025C3.95242 68.1574 5.38316 68.75 6.875 68.75H18.125M51.875 68.75H63.125C64.6168 68.75 66.0476 68.1574 67.1025 67.1025C68.1574 66.0476 68.75 64.6168 68.75 63.125V51.875M68.75 18.125V6.875C68.75 5.38316 68.1574 3.95242 67.1025 2.89752C66.0476 1.84263 64.6168 1.25 63.125 1.25H51.875M1.25 18.125V6.875C1.25 5.38316 1.84263 3.95242 2.89752 2.89752C3.95242 1.84263 5.38316 1.25 6.875 1.25H18.125" stroke="#F6F3EF" stroke-width="2" stroke-linecap="round" stroke-linejoin="round"/>
<path d="M53.75 35L35 53.75L16.25 35C14.375 33.125 13.4375 29.375 16.25 25.625C19.0625 21.875 24.6875 21.875 27.5 23.75C30.3125 25.625 31.25 27.5 35 27.5C38.75 27.5 39.6875 25.625 42.5 23.75C45.3125 21.875 50.9375 21.875 53.75 25.625C56.5625 29.375 55.625 33.125 53.75 35Z" fill="#F6F3EF" stroke="#F6F3EF" stroke-width="2" stroke-linecap="round" stroke-linejoin="round"/>
</svg>
