<svg width="90" height="90" viewBox="0 0 90 90" fill="none" xmlns="http://www.w3.org/2000/svg">
<path d="M15.3301 12.1875C14.6487 12.1806 13.988 12.4212 13.4707 12.8647C12.9534 13.3082 12.6147 13.9244 12.5176 14.5988C12.3005 16.1393 12.1903 17.693 12.1876 19.2488C12.1876 36.3038 25.4026 50.2613 42.1876 51.675V75C42.1876 75.746 42.4839 76.4613 43.0113 76.9888C43.5388 77.5162 44.2541 77.8125 45.0001 77.8125C45.746 77.8125 46.4613 77.5162 46.9888 76.9888C47.5162 76.4613 47.8126 75.746 47.8126 75V51.675C64.5976 50.2613 77.8126 36.3 77.8126 19.245C77.8126 17.67 77.7013 16.12 77.4788 14.595C77.3808 13.9213 77.0417 13.306 76.5245 12.8633C76.0073 12.4205 75.3471 12.1804 74.6663 12.1875C68.3907 12.2405 62.2616 14.0899 57.0042 17.5171C51.7468 20.9443 47.5811 25.8058 45.0001 31.5263C42.4188 25.8052 38.2525 20.9433 32.9944 17.5161C27.7362 14.0889 21.6063 12.2397 15.3301 12.1875Z" fill="#F6F3EF"/>
</svg>
