<svg width="61" height="61" viewBox="0 0 61 61" fill="none" xmlns="http://www.w3.org/2000/svg">
<path d="M48.2812 48.2916H12.716V20.3333H48.2812M40.6601 2.5416V7.62493H20.3371V2.5416H15.2564V7.62493H12.716C9.89624 7.62493 7.63531 9.88701 7.63531 12.7083V48.2916C7.63531 49.6398 8.1706 50.9327 9.12343 51.8861C10.0762 52.8394 11.3686 53.3749 12.716 53.3749H48.2812C49.6287 53.3749 50.921 52.8394 51.8738 51.8861C52.8266 50.9327 53.3619 49.6398 53.3619 48.2916V12.7083C53.3619 11.3601 52.8266 10.0671 51.8738 9.1138C50.921 8.16049 49.6287 7.62493 48.2812 7.62493H45.7408V2.5416M43.2004 30.4999H30.4986V43.2083H43.2004V30.4999Z" fill="#F6F3EF"/>
</svg>
