<svg width="32" height="32" viewBox="0 0 32 32" fill="none" xmlns="http://www.w3.org/2000/svg">
<g clip-path="url(#clip0_41_210)">
<mask id="mask0_41_210" style="mask-type:luminance" maskUnits="userSpaceOnUse" x="0" y="0" width="32" height="32">
<path d="M32 0H0V32H32V0Z" fill="white"/>
</mask>
<g mask="url(#mask0_41_210)">
<path fill-rule="evenodd" clip-rule="evenodd" d="M18.4922 7.76182C18.3497 7.76182 18.2126 7.70359 18.1105 7.59601C18.0253 7.50638 17.9725 7.4007 17.8757 7.20887C17.7054 6.87019 17.3882 6.23844 16.7323 5.40779C16.4608 5.06372 16.3515 4.94633 16.2745 4.87021C16.2144 4.81109 16.0612 4.66772 15.8408 4.50551C15.6741 4.70177 15.4832 4.86752 15.27 5.00012C14.6364 5.39528 14.0137 5.38002 13.5128 5.36841L13.4779 5.36751C13.4626 5.36751 11.934 5.33257 10.3023 5.44548C9.14724 5.52524 8.80856 5.66586 8.56126 5.80211C8.33633 5.92663 7.91789 6.15784 7.72522 6.58615C7.64187 6.77074 7.61769 6.95169 7.59711 7.09686C7.58634 7.17752 7.57647 7.24741 7.55768 7.31724C7.47612 7.61654 7.24671 7.74017 7.05947 7.75537C6.94656 7.76524 6.66431 7.74908 6.47259 7.39784C6.42424 7.30916 6.37758 7.19356 6.33461 7.05557C6.25575 6.80468 6.19214 6.49102 6.15989 6.19446C6.03895 5.09676 6.33012 4.19717 6.51382 3.75899C6.63296 3.47495 6.99144 2.73662 7.74048 2.0117C9.03792 0.75812 10.5881 0.436438 11.6141 0.223179C12.4698 0.0457634 13.0684 0.0197932 13.8211 0.00279761C14.4071 -0.0106642 15.0997 0.0144645 15.8004 0.304736C16.1588 0.452536 16.4205 0.62911 16.6248 0.860318C16.7807 1.03773 16.8434 1.17667 16.916 1.33704C16.9536 1.41949 16.9957 1.51355 17.0638 1.64436C17.234 1.96784 17.337 2.16404 17.5073 2.34056C17.5843 2.42032 17.6139 2.43737 17.7232 2.50182C17.8397 2.57081 17.9992 2.66404 18.2644 2.86294C18.5906 3.10755 18.8066 3.26976 19.0396 3.55022C19.1883 3.73033 19.4992 4.10485 19.622 4.66133C19.7009 5.01616 19.6641 5.29572 19.6032 5.75903C19.5637 6.05833 19.3612 6.60757 19.2994 6.768C19.0378 7.45528 18.9052 7.65418 18.6561 7.73484C18.6033 7.7529 18.5468 7.76182 18.4922 7.76182ZM15.718 3.3327C15.9662 3.3327 16.1813 3.48325 16.3175 3.57827L16.3318 3.58814C16.657 3.8139 16.8882 4.02626 16.9966 4.13295C17.114 4.24766 17.252 4.4 17.5432 4.76829C17.9519 5.28618 18.2412 5.73334 18.4491 6.09176C18.5172 5.8937 18.57 5.71455 18.5817 5.62492C18.6372 5.1975 18.6534 5.05413 18.6157 4.8839C18.5468 4.57113 18.3657 4.35344 18.2466 4.20918C18.0916 4.02189 17.9429 3.91083 17.6472 3.68854C17.4286 3.52453 17.3031 3.45015 17.2019 3.39103C17.0675 3.31217 16.9411 3.23785 16.7664 3.05595C16.4939 2.7737 16.3434 2.48696 16.1526 2.12405C16.0692 1.96542 16.0164 1.84718 15.9769 1.76114C15.9169 1.62854 15.9044 1.60167 15.8524 1.54255C15.787 1.46818 15.6777 1.36957 15.408 1.25761C14.8856 1.04166 14.3488 1.02281 13.8461 1.03364C13.1266 1.04974 12.597 1.07307 11.8255 1.23254C10.8613 1.43239 9.54145 1.70656 8.45906 2.75311C7.83005 3.36153 7.53973 3.98156 7.46625 4.15724C7.34975 4.4341 7.18041 4.94218 7.16515 5.57746C7.25209 5.47981 7.34795 5.38659 7.45368 5.2997C7.68932 5.10439 7.92232 4.97533 8.0621 4.89826C8.49844 4.65628 8.994 4.5004 10.2315 4.41441C11.9133 4.29791 13.4393 4.33286 13.503 4.33465L13.5388 4.33555C13.9573 4.34542 14.3533 4.35524 14.7234 4.12409C14.9169 4.00316 15.0827 3.83112 15.2154 3.61243C15.2987 3.47444 15.4313 3.37942 15.5899 3.34538C15.6338 3.33623 15.6759 3.3327 15.718 3.3327Z" fill="black"/>
<path fill-rule="evenodd" clip-rule="evenodd" d="M12.9072 16.355C12.5604 16.355 12.1662 16.3218 11.7415 16.2277C11.3633 16.1443 10.3786 15.8648 9.41171 15.0727C8.94845 14.6928 8.09811 13.8549 7.61511 12.5109C7.48341 12.1444 7.39737 11.7502 7.34806 11.4804C7.01023 11.329 6.70021 11.1005 6.43765 10.8075C6.10256 10.433 5.86866 9.97959 5.76203 9.49659C5.54518 8.51455 5.87853 7.55034 6.67688 6.85324C6.89193 6.66595 7.2181 6.68744 7.40533 6.90255C7.59262 7.1176 7.57114 7.44377 7.35603 7.631C6.66336 8.23583 6.69118 8.92042 6.76999 9.27436C6.90977 9.90695 7.38553 10.4428 7.95368 10.6077C8.14994 10.665 8.29415 10.8317 8.32102 11.0342C8.36045 11.3236 8.45272 11.7931 8.58627 12.1632C9.00028 13.3155 9.75919 14.0243 10.0656 14.2761C10.8604 14.9267 11.6579 15.1543 11.9635 15.2223C12.8344 15.414 13.5522 15.2877 13.821 15.2241C14.554 15.0511 15.0476 14.7106 15.2591 14.5655C15.4115 14.4606 15.8093 14.1649 16.2143 13.6855C16.7994 12.9929 17.2305 12.0511 17.4634 10.9606C17.5073 10.7536 17.674 10.5941 17.8828 10.5592C18.1104 10.5206 18.3586 10.3244 18.5629 10.0216C18.7851 9.69095 18.9294 9.2752 18.9581 8.88183C18.9885 8.4607 18.9043 7.91948 18.3273 7.73399C18.0558 7.64704 17.907 7.35588 17.994 7.08434C18.0809 6.81286 18.3721 6.6641 18.6436 6.75105C19.1328 6.90877 19.5137 7.22148 19.744 7.65692C19.9384 8.02341 20.0226 8.47231 19.9877 8.95531C19.9465 9.5225 19.7395 10.1211 19.4196 10.5969C19.1374 11.0163 18.7853 11.3191 18.4045 11.4759C18.1222 12.6183 17.6518 13.5843 17.0039 14.3513C16.5362 14.9051 16.0774 15.2553 15.8453 15.4149C15.6087 15.5771 14.9806 16.0098 14.0595 16.2276C13.8113 16.285 13.409 16.355 12.9072 16.355Z" fill="black"/>
<path fill-rule="evenodd" clip-rule="evenodd" d="M9.82019 18.3326C9.74312 18.3326 9.66515 18.3155 9.59083 18.2788C9.33545 18.1525 9.23062 17.8425 9.35783 17.5871C9.51646 17.2672 9.78524 16.6257 9.80409 15.9204C9.81127 15.6436 9.77543 15.5172 9.71625 15.3066C9.70015 15.2501 9.6822 15.1857 9.66336 15.1149C9.59257 14.8389 9.75922 14.5575 10.0352 14.4867C10.3112 14.416 10.5926 14.5826 10.6634 14.8586C10.6787 14.9159 10.6939 14.9715 10.7091 15.0253C10.7772 15.2655 10.848 15.5137 10.8364 15.9473C10.8131 16.8505 10.4798 17.6498 10.2836 18.0449C10.193 18.2277 10.0101 18.3326 9.82019 18.3326Z" fill="black"/>
<path fill-rule="evenodd" clip-rule="evenodd" d="M16.0752 18.6711C15.8996 18.6711 15.7293 18.5815 15.6325 18.4211C15.292 17.8548 14.8807 16.966 14.8538 15.948C14.8421 15.5134 14.9129 15.2653 14.9811 15.026C14.9963 14.9723 15.0115 14.9176 15.0268 14.8594C15.0976 14.5834 15.3789 14.4167 15.655 14.4875C15.931 14.5583 16.0976 14.8396 16.0268 15.1156C16.0089 15.1855 15.9901 15.25 15.9739 15.3074C15.9148 15.517 15.8781 15.6442 15.8861 15.9212C15.9067 16.7151 16.2409 17.4301 16.5169 17.8898C16.6639 18.1344 16.585 18.4516 16.3404 18.5977C16.2571 18.647 16.1657 18.6711 16.0752 18.6711Z" fill="black"/>
<path fill-rule="evenodd" clip-rule="evenodd" d="M25.8207 31.2616H0.516324C0.232278 31.2616 0.00107121 31.0313 0.000229846 30.7473C-0.0051549 28.948 0.0772989 24.4508 0.974251 21.5583C1.21264 20.7913 1.50111 20.165 1.88192 19.5879C2.2018 19.1041 3.12478 17.8872 4.77347 17.0494C6.28422 16.2806 7.72958 16.1668 8.67578 16.2062C8.79946 16.2116 8.91775 16.2609 9.00733 16.346L13.0602 20.1515L17.337 16.3379C17.4257 16.2582 17.5395 16.2125 17.6596 16.2071C18.6058 16.1677 20.0503 16.2823 21.5619 17.0502C23.2106 17.8889 24.1336 19.1049 24.4535 19.5888C24.8352 20.1658 25.1237 20.7913 25.3611 21.5592C25.7733 22.8862 26.0601 24.7016 26.2142 26.9524C26.2975 28.1675 26.3396 29.4793 26.3351 30.7472C26.336 31.0322 26.1048 31.2616 25.8207 31.2616ZM13.1372 30.2294H25.3037C25.2966 29.1488 25.2562 28.0502 25.1854 27.0233C25.0367 24.8513 24.7643 23.1157 24.3763 21.8648C24.1648 21.1847 23.9238 20.6578 23.5931 20.1577C23.3181 19.7419 22.5242 18.6963 21.0941 17.9696C19.8754 17.3496 18.7043 17.2196 17.8844 17.2322L13.3952 21.2348C13.1954 21.4122 12.8934 21.4086 12.6981 21.2258L8.44451 17.2313C7.62553 17.2205 6.45799 17.3504 5.24199 17.9687C3.8119 18.6953 3.01804 19.741 2.74291 20.1568C2.41226 20.6568 2.17123 21.1828 1.95977 21.8629C1.57179 23.1137 1.29935 24.8494 1.1506 27.0214C1.07981 28.0484 1.03948 29.1469 1.03231 30.2275L13.1372 30.2294Z" fill="black"/>
<path fill-rule="evenodd" clip-rule="evenodd" d="M5.41404 31.2615C5.1291 31.2615 4.89795 31.0303 4.89795 30.7454V24.7929C4.89795 24.508 5.12916 24.2769 5.41404 24.2769C5.69893 24.2769 5.93014 24.508 5.93014 24.7929V30.7454C5.93025 31.0303 5.69904 31.2615 5.41404 31.2615Z" fill="black"/>
<path fill-rule="evenodd" clip-rule="evenodd" d="M21.3388 31.2615C21.0539 31.2615 20.8228 31.0303 20.8228 30.7454V24.7929C20.8228 24.508 21.0539 24.2769 21.3388 24.2769C21.6238 24.2769 21.8549 24.508 21.8549 24.7929V30.7454C21.855 31.0303 21.6238 31.2615 21.3388 31.2615Z" fill="black"/>
<path fill-rule="evenodd" clip-rule="evenodd" d="M23.415 16.3674C23.1301 16.3674 22.8989 16.1362 22.8989 15.8513V1.21434C22.8989 0.929393 23.1301 0.698242 23.415 0.698242C23.7 0.698242 23.9311 0.92945 23.9311 1.21434V15.8513C23.9312 16.1362 23.7 16.3674 23.415 16.3674Z" fill="black"/>
<path fill-rule="evenodd" clip-rule="evenodd" d="M31.4839 9.2232H23.415C23.1301 9.2232 22.8989 8.99204 22.8989 8.7071V2.48492C22.8989 2.28782 23.0109 2.10861 23.1875 2.02167C23.364 1.93473 23.5745 1.95626 23.7305 2.07635L31.7994 8.29848C31.9741 8.43287 32.044 8.66498 31.9724 8.87375C31.9015 9.08258 31.7044 9.2232 31.4839 9.2232ZM23.9312 8.19095H29.9696L23.9312 3.53512V8.19095Z" fill="black"/>
<path fill-rule="evenodd" clip-rule="evenodd" d="M15.7217 29.3942H10.3525C10.0676 29.3942 9.83643 29.163 9.83643 28.8781V22.56C9.83643 22.2751 10.0676 22.0439 10.3525 22.0439H15.7217C16.0066 22.0439 16.2378 22.2751 16.2378 22.56V28.8781C16.2378 29.1639 16.0075 29.3942 15.7217 29.3942ZM10.8696 28.3619H15.2064V23.0761H10.8696V28.3619Z" fill="black"/>
<path fill-rule="evenodd" clip-rule="evenodd" d="M13.9767 24.7107H12.0976C11.8127 24.7107 11.5815 24.4795 11.5815 24.1946C11.5815 23.9096 11.8127 23.6785 12.0976 23.6785H13.9767C14.2616 23.6785 14.4928 23.9096 14.4928 24.1946C14.4928 24.4795 14.2616 24.7107 13.9767 24.7107Z" fill="black"/>
<path fill-rule="evenodd" clip-rule="evenodd" d="M13.9767 26.2356H12.0976C11.8127 26.2356 11.5815 26.0044 11.5815 25.7195C11.5815 25.4345 11.8127 25.2034 12.0976 25.2034H13.9767C14.2616 25.2034 14.4928 25.4345 14.4928 25.7195C14.4928 26.0044 14.2616 26.2356 13.9767 26.2356Z" fill="black"/>
<path fill-rule="evenodd" clip-rule="evenodd" d="M13.9767 27.7607H12.0976C11.8127 27.7607 11.5815 27.5296 11.5815 27.2446C11.5815 26.9597 11.8127 26.7285 12.0976 26.7285H13.9767C14.2616 26.7285 14.4928 26.9597 14.4928 27.2446C14.4928 27.5296 14.2616 27.7607 13.9767 27.7607Z" fill="black"/>
<path fill-rule="evenodd" clip-rule="evenodd" d="M10.3532 23.0763C10.1776 23.0763 10.0064 22.9866 9.90969 22.8254L6.48679 17.1166C6.33983 16.872 6.41959 16.5548 6.6642 16.4087C6.90882 16.2617 7.22601 16.3415 7.37213 16.5861L10.795 22.2948C10.942 22.5394 10.8622 22.8566 10.6176 23.0027C10.5351 23.053 10.4437 23.0763 10.3532 23.0763Z" fill="black"/>
<path fill-rule="evenodd" clip-rule="evenodd" d="M15.7215 23.0762C15.6311 23.0762 15.5396 23.053 15.4563 23.0028C15.2117 22.8559 15.1328 22.5395 15.2789 22.2949L18.7018 16.5862C18.8487 16.3416 19.165 16.2627 19.4097 16.4088C19.6543 16.5557 19.7332 16.872 19.5871 17.1167L16.1642 22.8254C16.0683 22.9866 15.8972 23.0762 15.7215 23.0762Z" fill="black"/>
</g>
</g>
<defs>
<clipPath id="clip0_41_210">
<rect width="32" height="32" fill="white"/>
</clipPath>
</defs>
</svg>
