<svg width="35" height="32" viewBox="0 0 35 32" fill="none" xmlns="http://www.w3.org/2000/svg">
<path d="M9.83478 29.2688C9.52396 29.2663 9.21744 29.2023 8.93635 29.081C8.65525 28.9597 8.40628 28.7841 8.20663 28.5663C8.00699 28.3485 7.8614 28.0937 7.77994 27.8195C7.69847 27.5452 7.68306 27.2581 7.73478 26.9779C7.75448 26.87 7.78054 26.7632 7.81283 26.6579C7.88322 26.429 7.99915 26.2139 8.15478 26.0233L11.7248 21.664C11.8831 21.4706 11.9812 21.2415 12.0086 21.0012L12.0576 17.3577C12.0593 17.223 12.1192 17.0943 12.224 16.9996C12.3288 16.9049 12.4703 16.8518 12.6176 16.8518H12.6246C12.7731 16.8535 12.9148 16.909 13.0185 17.0062C13.1221 17.1033 13.1795 17.2341 13.1776 17.3699L13.1286 21.0355C13.1286 21.0486 13.1286 21.062 13.1265 21.0755C13.0831 21.511 12.9084 21.9269 12.6219 22.2771L9.05148 26.6364C8.9776 26.7261 8.92233 26.8274 8.88838 26.9353C8.86736 27.0049 8.85019 27.0754 8.83693 27.1465C8.80541 27.3112 8.82295 27.4806 8.88766 27.6369C8.95238 27.7933 9.06191 27.9308 9.20478 28.0352C9.34309 28.1393 9.50946 28.2075 9.68648 28.2326C9.86351 28.2578 10.0447 28.239 10.211 28.1782L10.2299 28.1708L10.2436 28.166C10.4094 28.1025 10.5535 27.9994 10.6608 27.8675L14.9255 22.67L15.3773 20.8112C15.3933 20.7455 15.4233 20.6834 15.4655 20.6283C15.5077 20.5733 15.5613 20.5264 15.6233 20.4903C15.6855 20.4541 15.7547 20.4296 15.8271 20.4179C15.8995 20.4063 15.9738 20.4078 16.0455 20.4224C16.1174 20.4369 16.1853 20.4643 16.2455 20.5029C16.3057 20.5415 16.357 20.5906 16.3965 20.6473C16.436 20.704 16.4629 20.7673 16.4757 20.8335C16.4884 20.8997 16.4867 20.9676 16.4708 21.0332L15.9927 23C15.9755 23.0711 15.9418 23.138 15.8939 23.1961L11.5539 28.4825C11.3253 28.7617 11.0187 28.9795 10.6664 29.1132L10.6555 29.1174L10.6184 29.1312C10.3689 29.2214 10.1031 29.2681 9.83478 29.2688Z" fill="black"/>
<path d="M12.9695 17.4897C12.8797 17.4895 12.7912 17.4695 12.7115 17.4314C12.6319 17.3934 12.5635 17.3384 12.5121 17.2711C12.4605 17.2038 12.4275 17.1262 12.4158 17.0447C12.404 16.9633 12.4138 16.8805 12.4445 16.8033L15.2056 9.83305C15.3605 9.4343 15.6201 9.07636 15.9614 8.79056C16.3027 8.50476 16.7154 8.29982 17.1634 8.19368C17.8674 8.03016 18.5634 8.12488 19.231 8.47592C19.6928 8.72234 20.0859 9.06333 20.3793 9.47209L22.7348 12.7191C22.7771 12.7781 22.835 12.8266 22.9029 12.8601C22.9708 12.8936 23.0468 12.9111 23.1239 12.9111H25.8512C26.462 12.9111 27.0369 13.1975 27.3519 13.6586C27.6949 14.161 27.6474 14.73 27.2218 15.2199C27.0553 15.4109 26.8435 15.5649 26.6025 15.6702C26.3614 15.7755 26.0973 15.8295 25.8302 15.8279H21.347C20.4097 15.8279 19.5382 15.4177 19.016 14.7306C18.9834 14.6881 18.951 14.6423 18.9198 14.595C18.808 14.4256 18.697 14.2564 18.5866 14.0874C18.4652 13.9018 18.3434 13.7162 18.2209 13.5306C18.0017 13.1982 17.8313 12.9447 17.6682 12.7089L17.2975 12.1719C17.2532 12.1152 17.2221 12.0509 17.2059 11.9828C17.1897 11.9147 17.1889 11.8443 17.2035 11.7759C17.2181 11.7076 17.2479 11.6426 17.2909 11.5851C17.334 11.5276 17.3893 11.4787 17.4537 11.4415C17.5181 11.4042 17.5902 11.3794 17.6655 11.3685C17.7407 11.3576 17.8176 11.3608 17.8914 11.3781C17.9653 11.3953 18.0345 11.4261 18.0949 11.4686C18.1553 11.5111 18.2055 11.5645 18.2425 11.6254L18.6153 12.1601C18.7822 12.402 18.9565 12.6609 19.1799 12.9991C19.303 13.1854 19.4249 13.3726 19.5477 13.5591C19.6576 13.7274 19.7679 13.8957 19.8785 14.0638C19.8969 14.0916 19.9162 14.1185 19.9351 14.1434C20.095 14.3491 20.3069 14.5164 20.5528 14.631C20.7985 14.7456 21.0711 14.8042 21.347 14.8017H25.8299C25.9283 14.8022 26.0257 14.7825 26.1147 14.7441C26.2038 14.7057 26.2824 14.6496 26.3447 14.5799C26.5092 14.3908 26.4675 14.2948 26.4014 14.1978C26.3414 14.1148 26.2596 14.047 26.1634 14.0005C26.0671 13.9541 25.9596 13.9306 25.8509 13.9322H23.1239C22.862 13.9326 22.604 13.8735 22.373 13.7602C22.1421 13.647 21.9455 13.4831 21.8009 13.2833L19.4459 10.0375C19.2482 9.7612 18.9832 9.53051 18.6716 9.3636C18.2594 9.14696 17.8555 9.08904 17.4379 9.186C17.1671 9.25123 16.9179 9.37609 16.7121 9.54968C16.5062 9.72328 16.3499 9.94032 16.2569 10.1818L13.4959 17.1521C13.4566 17.251 13.3851 17.3364 13.2909 17.3968C13.1967 17.4572 13.0845 17.4897 12.9695 17.4897Z" fill="black"/>
<path d="M19.9872 29.1575C19.7685 29.1571 19.5515 29.1236 19.3449 29.0583C18.3016 28.7306 17.7125 28.1287 17.7294 27.4074L17.7504 26.538V24.17C17.7499 23.8521 17.6259 23.5447 17.4004 23.3028L12.1892 17.6941C12.1415 17.6429 12.1054 17.5836 12.0828 17.5196C12.0602 17.4555 12.0517 17.3881 12.0576 17.3211C12.0636 17.254 12.084 17.1887 12.1174 17.1289C12.151 17.069 12.1972 17.0158 12.2532 16.9722C12.3093 16.9287 12.3741 16.8956 12.4441 16.875C12.5141 16.8544 12.588 16.8466 12.6612 16.852C12.7346 16.8574 12.8061 16.876 12.8715 16.9067C12.937 16.9374 12.9952 16.9795 13.0429 17.0308L18.2553 22.6394C18.6521 23.0668 18.8701 23.6091 18.8704 24.1697V26.5549L18.8489 27.4295C18.8406 27.7889 19.5052 28.026 19.7089 28.09C19.8914 28.151 20.0922 28.1481 20.2724 28.0817C20.7442 27.898 20.8103 27.3297 20.8167 27.2602V22.2401C20.817 21.905 20.6796 21.5821 20.4317 21.3354L17.8151 18.7233C17.4298 18.3396 17.1646 17.868 17.0476 17.3583C16.9306 16.8485 16.9659 16.3193 17.1501 15.8263L18.1742 13.0861C18.2222 12.9577 18.3241 12.8519 18.4575 12.7921C18.5908 12.7323 18.7447 12.7233 18.8852 12.7673C19.0257 12.8112 19.1414 12.9044 19.2068 13.0263C19.2722 13.1482 19.282 13.2889 19.2339 13.4173L18.2098 16.1575C18.0905 16.4763 18.0674 16.8186 18.1429 17.1483C18.2184 17.4781 18.3898 17.7832 18.6389 18.0314L21.2559 20.6423C21.6943 21.0778 21.9372 21.6482 21.9367 22.2401V27.2762V27.2989C21.9139 27.7713 21.6301 28.6663 20.7117 29.0237C20.4825 29.1127 20.2361 29.1582 19.9872 29.1575Z" fill="black"/>
<path d="M12.1615 18.0581C12.0347 18.0581 11.9088 18.0388 11.7891 18.0008C11.6683 17.9624 11.5482 17.9234 11.4278 17.8844C11.1783 17.8031 10.9204 17.7196 10.668 17.6444L9.06886 17.1692C8.9789 17.1418 8.88727 17.1193 8.79446 17.1016C8.17391 16.9845 7.75531 16.7538 7.55126 16.4162C7.47748 16.2929 7.43381 16.1564 7.42323 16.0161C7.41267 15.8758 7.43544 15.7352 7.49001 15.6037L7.49421 15.5935C7.51206 15.55 7.52921 15.509 7.54251 15.4706L10.2473 7.9618C10.3226 7.75252 10.3831 7.53748 10.4472 7.30964L10.4647 7.2482C10.5355 7.00044 10.6946 6.78133 10.9169 6.62548C11.0924 6.50243 11.2965 6.41793 11.5133 6.37853C11.7302 6.33914 11.9541 6.34589 12.1677 6.39828L14.8344 7.04244C15.5344 7.17588 16.0381 7.47924 16.3321 7.94452C16.8003 8.68564 16.5179 9.51924 16.484 9.61172L15.4213 9.28788V9.2914C15.4679 9.15668 15.5481 8.74388 15.3608 8.45268C15.231 8.25108 14.9733 8.11316 14.5953 8.04276C14.5848 8.04084 14.5743 8.0386 14.5642 8.03604L11.8828 7.38836C11.8363 7.37583 11.7872 7.3733 11.7395 7.38096C11.6917 7.38862 11.6465 7.40627 11.6074 7.43252C11.5794 7.44911 11.559 7.47449 11.55 7.50388L11.5328 7.565C11.4671 7.79892 11.3992 8.04052 11.312 8.2818L8.60511 15.7909C8.58691 15.8421 8.56766 15.8895 8.54911 15.9356C8.59111 15.9676 8.71466 16.0408 9.02091 16.0988C9.15411 16.1241 9.28568 16.1561 9.41501 16.1948L11.0142 16.6719C11.2812 16.7512 11.5465 16.8373 11.8031 16.9205C11.9211 16.9589 12.0393 16.9971 12.1576 17.0351C12.1814 17.0351 12.3133 16.9775 12.4926 16.7106C12.5445 16.6333 12.6181 16.5699 12.7057 16.5271C12.7933 16.4844 12.8917 16.4636 12.991 16.4671C13.026 16.4671 16.491 16.5522 17.7111 14.3452C17.7442 14.2851 17.7899 14.2317 17.8457 14.1878C17.9014 14.1439 17.966 14.1105 18.0359 14.0895C18.1058 14.0685 18.1795 14.0602 18.2528 14.0653C18.3262 14.0703 18.3977 14.0885 18.4634 14.1188C18.5291 14.1491 18.5875 14.1909 18.6355 14.2418C18.6835 14.2928 18.7201 14.3519 18.743 14.4158C18.766 14.4797 18.775 14.5471 18.7695 14.6141C18.764 14.6812 18.7441 14.7466 18.711 14.8066C18.0646 15.9765 16.856 16.812 15.211 17.2223C14.5756 17.3787 13.9227 17.4678 13.265 17.4879C12.872 17.9455 12.466 18.0581 12.1615 18.0581Z" fill="black"/>
<path d="M20.3993 8.02239C19.8224 8.02214 19.2586 7.86549 18.7789 7.57226C18.2994 7.27903 17.9257 6.86239 17.7051 6.375C17.4845 5.88761 17.427 5.35136 17.5397 4.83406C17.6524 4.31676 17.9304 3.84163 18.3384 3.46874C18.7465 3.09586 19.2662 2.84196 19.8321 2.73915C20.3979 2.63633 20.9845 2.68923 21.5175 2.89114C22.0504 3.09305 22.5059 3.43491 22.8265 3.87351C23.1469 4.3121 23.318 4.82772 23.318 5.35519C23.3169 6.06251 23.0091 6.74058 22.4619 7.24061C21.9147 7.74064 21.1729 8.0218 20.3993 8.02239ZM20.3993 3.71199C20.0439 3.71224 19.6966 3.80883 19.4012 3.98954C19.1059 4.17025 18.8757 4.42697 18.7399 4.72725C18.6041 5.02753 18.5686 5.35788 18.6382 5.67655C18.7076 5.99521 18.8789 6.28788 19.1304 6.51756C19.3818 6.74724 19.702 6.90361 20.0506 6.96691C20.3992 7.03021 20.7605 6.99759 21.0888 6.87319C21.4172 6.74878 21.6977 6.53816 21.8951 6.26797C22.0926 5.99777 22.198 5.68013 22.198 5.35519C22.1974 4.91935 22.0076 4.50154 21.6704 4.19347C21.3332 3.88541 20.876 3.71224 20.3993 3.71199Z" fill="black"/>
<path d="M25.8241 29.3121C25.6756 29.3121 25.5332 29.2582 25.4282 29.1621C25.3232 29.0661 25.2641 28.9359 25.2641 28.8001V15.315C25.2641 15.1792 25.3232 15.049 25.4282 14.9529C25.5332 14.8569 25.6756 14.803 25.8241 14.803C25.9726 14.803 26.1151 14.8569 26.2201 14.9529C26.3251 15.049 26.3841 15.1792 26.3841 15.315V28.8001C26.3841 28.9359 26.3251 29.0661 26.2201 29.1621C26.1151 29.2582 25.9726 29.3121 25.8241 29.3121Z" fill="black"/>
<path d="M25.8241 13.9335C25.6756 13.9335 25.5332 13.8796 25.4282 13.7835C25.3232 13.6875 25.2641 13.5573 25.2641 13.4215V10.6199C25.2641 10.4841 25.3232 10.3539 25.4282 10.2579C25.5332 10.1619 25.6756 10.1079 25.8241 10.1079C25.9726 10.1079 26.1151 10.1619 26.2201 10.2579C26.3251 10.3539 26.3841 10.4841 26.3841 10.6199V13.4215C26.3841 13.5573 26.3251 13.6875 26.2201 13.7835C26.1151 13.8796 25.9726 13.9335 25.8241 13.9335Z" fill="black"/>
<path d="M15.378 11.4095C15.3257 11.4095 15.2737 11.4028 15.2234 11.3897L10.107 10.0479C10.036 10.0296 9.96961 9.99874 9.91166 9.95696C9.85372 9.91517 9.80539 9.86333 9.76944 9.80441C9.73349 9.74548 9.71063 9.68065 9.70217 9.61362C9.69372 9.5466 9.69983 9.4787 9.72018 9.41385C9.74052 9.34899 9.77468 9.28845 9.82069 9.2357C9.86671 9.18296 9.92367 9.13905 9.98831 9.1065C10.053 9.07394 10.124 9.0534 10.1973 9.04603C10.2707 9.03866 10.3449 9.04462 10.4157 9.06357L15.532 10.4053C15.6618 10.4394 15.7737 10.5151 15.8472 10.6186C15.9208 10.7221 15.951 10.8464 15.9322 10.9686C15.9135 11.0908 15.8471 11.2027 15.7453 11.2837C15.6435 11.3648 15.513 11.4094 15.378 11.4095Z" fill="black"/>
</svg>
