<svg width="32" height="32" viewBox="0 0 32 32" fill="none" xmlns="http://www.w3.org/2000/svg">
<g clip-path="url(#clip0_42_283)">
<mask id="mask0_42_283" style="mask-type:luminance" maskUnits="userSpaceOnUse" x="0" y="0" width="32" height="32">
<path d="M32 0H0V32H32V0Z" fill="white"/>
</mask>
<g mask="url(#mask0_42_283)">
<path d="M31.2794 28.9801L29.3641 26.5108C27.5557 24.1795 25.2579 22.2872 22.6419 20.9608C24.054 19.5562 24.9993 17.7344 25.3279 15.7591L26.9017 6.29742C26.9446 6.04034 26.8233 5.78375 26.5977 5.65362L16.9507 0.0837932C16.7249 -0.046578 16.4422 -0.0231405 16.241 0.142387L8.83378 6.23639C6.84233 7.87481 5.58451 10.2889 5.38261 12.8599C5.3809 12.8817 5.38017 12.9031 5.37846 12.9246C5.16117 12.2657 4.97514 11.5943 4.82328 10.9119C4.60526 9.93292 3.75248 9.24933 2.74955 9.24933C2.14017 9.24933 1.55936 9.51153 1.15629 9.96856C0.75321 10.4256 0.565466 11.0345 0.641638 11.6392C1.25809 16.5372 3.26762 21.1197 6.45268 24.8914C6.82572 25.3333 7.2227 25.755 7.63847 26.1571L6.41508 28.2762L3.06791 26.3436C2.76884 26.171 2.38651 26.2735 2.21415 26.5723C2.04154 26.8714 2.14384 27.2535 2.44291 27.4261L10.2198 31.9161C10.3182 31.973 10.4256 31.9998 10.5315 31.9998C10.7476 31.9998 10.9578 31.8878 11.0735 31.6873C11.2461 31.3885 11.1436 31.0062 10.8448 30.8336L7.4976 28.9012L8.58842 27.0118C9.9058 28.1104 11.3848 29.0159 12.9654 29.6822L18.3465 31.9508C18.4258 31.9842 18.5081 32.0001 18.5892 32.0001C18.8328 32.0001 19.0647 31.8565 19.1653 31.6178C19.2994 31.2996 19.1502 30.9332 18.8323 30.7989L13.451 28.5306C11.1255 27.5501 9.03569 26.013 7.40776 24.085C4.37895 20.4984 2.46806 16.1407 1.88187 11.4832C1.84989 11.2305 1.92533 10.9864 2.09379 10.7955C2.262 10.6046 2.49491 10.4993 2.74955 10.4993C3.16239 10.4993 3.51347 10.7808 3.60307 11.1839C4.21928 13.9503 5.35258 16.5521 6.93388 18.8665C7.01835 18.9945 7.10673 19.1202 7.19755 19.2445C7.90556 20.2354 8.69658 21.1715 9.56669 22.0416L11.9432 24.4183C12.3216 24.7967 12.8248 25.005 13.3597 25.005C13.8946 25.005 14.3978 24.7967 14.7762 24.4183C15.5569 23.6373 15.5569 22.3665 14.7762 21.5855L10.7644 17.5738C10.5381 17.3475 10.4136 17.0467 10.4136 16.7269C10.4136 16.407 10.5381 16.1063 10.7644 15.8802C11.2312 15.4131 11.991 15.4131 12.4581 15.8802L13.3597 16.7818C15.3475 18.7698 17.6868 20.2877 20.3123 21.293C23.4974 22.513 26.2859 24.5821 28.3763 27.2772L30.2918 29.7464C30.5032 30.0191 30.8961 30.0687 31.1688 29.857C31.4415 29.6453 31.491 29.2528 31.2794 28.9801ZM9.62797 7.20172L16.7007 1.38287L18.2879 2.29913L14.9305 5.06109C14.6641 5.28057 14.6258 5.67437 14.845 5.94098C14.9686 6.09112 15.1475 6.16876 15.3282 6.16876C15.4678 6.16876 15.6084 6.12213 15.7249 6.02642L19.4441 2.96661L25.5975 6.51934L24.545 12.847C24.0716 13.1854 20.8814 15.2071 15.7803 12.461C12.5391 10.7159 9.97294 10.7776 8.39091 11.1368C7.77323 11.2769 7.25273 11.4722 6.83525 11.6675C7.25614 9.9295 8.23539 8.34723 9.62797 7.20172ZM13.3597 23.755C13.1585 23.755 12.9693 23.6766 12.8272 23.5343L12.3321 23.0394C12.3843 23.0601 12.4366 23.0811 12.4891 23.1014C12.9478 23.2779 13.4224 23.4185 13.9031 23.5223C13.8992 23.5262 13.896 23.5306 13.8921 23.5345C13.75 23.6766 13.5608 23.755 13.3597 23.755ZM14.2435 15.8978L13.3418 14.9962C12.3875 14.0418 10.8348 14.0418 9.88041 14.9962C9.41826 15.4583 9.16337 16.0731 9.16337 16.7269C9.16337 17.3807 9.41801 17.9952 9.88041 18.4576L13.5716 22.1488C13.3575 22.0858 13.1456 22.0147 12.9375 21.9346C11.7586 21.4813 10.6629 20.8487 9.68071 20.0543C9.1226 19.6028 8.63334 19.0862 8.21757 18.5218C8.13481 18.4058 8.05326 18.2889 7.97294 18.1715C7.0186 16.7239 6.5308 14.9962 6.61235 13.2259C7.33793 12.7193 10.3931 10.9805 15.1878 13.5616C17.4314 14.7694 19.3594 15.1302 20.8624 15.1302C21.5267 15.1302 22.1082 15.0599 22.5967 14.9608C23.2776 14.8228 23.8428 14.6194 24.2837 14.4193L24.0948 15.554C23.7837 17.4241 22.8367 19.1363 21.4219 20.3934C21.2029 20.3004 20.982 20.211 20.7593 20.1256C18.2986 19.1832 16.1065 17.7608 14.2435 15.8978Z" fill="black"/>
<path d="M13.6387 7.55811C13.803 7.55811 13.9644 7.49121 14.0806 7.375C14.1968 7.25879 14.2637 7.09741 14.2637 6.93311C14.2637 6.7688 14.1968 6.60742 14.0806 6.49121C13.9641 6.375 13.8037 6.30811 13.6387 6.30811C13.4744 6.30811 13.313 6.375 13.1968 6.49121C13.0806 6.60742 13.0137 6.7688 13.0137 6.93311C13.0137 7.09741 13.0806 7.25879 13.1968 7.375C13.313 7.49121 13.4744 7.55811 13.6387 7.55811Z" fill="black"/>
</g>
</g>
<defs>
<clipPath id="clip0_42_283">
<rect width="32" height="32" fill="white"/>
</clipPath>
</defs>
</svg>
