<svg width="35" height="35" viewBox="0 0 35 35" fill="none" xmlns="http://www.w3.org/2000/svg">
<path d="M12.1771 11.2088C12.1771 10.4683 12.3966 9.74457 12.808 9.12895C13.2193 8.51333 13.804 8.03351 14.488 7.75017C15.1721 7.46683 15.9248 7.39269 16.6509 7.53714C17.3771 7.68158 18.0441 8.03812 18.5677 8.56167C19.0912 9.08521 19.4478 9.75225 19.5922 10.4784C19.7367 11.2046 19.6625 11.9573 19.3792 12.6413C19.0958 13.3254 18.616 13.91 18.0004 14.3214C17.3848 14.7327 16.661 14.9523 15.9206 14.9523V19.1363C20.2992 19.1363 23.8481 15.5867 23.8481 11.2088C23.8481 6.83083 20.3 3.28125 15.9206 3.28125C11.5412 3.28125 7.9931 6.83083 7.9931 11.2088H12.1771Z" stroke="black" stroke-width="0.5" stroke-linecap="round" stroke-linejoin="round"/>
<path d="M18.5821 27.1396C17.7472 27.5213 16.8401 27.7195 15.9221 27.7207C15.0832 27.7215 14.2525 27.5568 13.4773 27.2362C12.7022 26.9155 11.9979 26.4451 11.4047 25.852C10.8116 25.2588 10.3412 24.5545 10.0206 23.7794C9.69991 23.0043 9.53525 22.1735 9.53602 21.3347C9.53583 20.496 9.70088 19.6655 10.0217 18.8906C10.3426 18.1157 10.813 17.4117 11.406 16.8186C11.9991 16.2256 12.7031 15.7552 13.478 15.4343C14.2529 15.1135 15.0834 14.9484 15.9221 14.9486V11.2051C10.3294 11.2051 5.79248 15.7405 5.79248 21.3347C5.79248 26.9361 10.3294 31.4642 15.9221 31.4642C17.8765 31.4672 19.7894 30.9009 21.4273 29.8346M21.5068 24.4263C22.0334 23.481 22.3095 22.4168 22.3088 21.3347V20.6296H28.0255V24.5933H25.5055C25.2107 25.463 24.7957 26.2872 24.2725 27.0418" stroke="black" stroke-width="0.5" stroke-linecap="round" stroke-linejoin="round"/>
<path d="M15.9221 27.7207V31.4643M23.4157 31.7187H29.2075L15.9206 19.1362H10.1296L23.4157 31.7187Z" stroke="black" stroke-width="0.5" stroke-linecap="round" stroke-linejoin="round"/>
</svg>
