<svg width="30" height="30" viewBox="0 0 30 30" fill="none" xmlns="http://www.w3.org/2000/svg">
<path d="M25.3301 1.6792C24.5449 1.6792 23.7715 2.05596 22.957 2.8499C22.7226 3.08076 22.5 3.32217 22.2773 3.56006C22.4941 3.8876 22.6347 4.30068 22.7285 4.6417C23.0566 4.28135 23.3789 3.91455 23.6953 3.60107C24.2871 3.01631 24.8144 2.6876 25.2715 2.74209C26.2148 2.85342 26.6601 3.12588 27.0058 3.49268C27.3515 3.85947 27.5976 4.37861 27.9668 4.96807L28.8574 4.40674C28.5351 3.88994 28.2715 3.29639 27.7734 2.76553C26.9179 2.05479 26.1152 1.67861 25.3301 1.6792ZM6.66208 2.67354C3.53611 2.68701 2.10935 3.70244 1.05701 4.77588L1.81052 5.51416C2.83123 4.47295 3.86306 3.65381 7.08396 3.7376L9.10544 5.64307H9.98435C9.97263 5.11924 9.52732 4.62354 9.24607 4.32471C8.37302 3.379 7.83396 2.67119 6.66208 2.67354ZM15.2578 3.24717C14.666 3.24717 14.0742 3.25947 13.5234 3.28057C13.7461 3.77158 13.8515 4.29893 13.9101 4.73838C13.9687 5.42041 12.9961 5.46143 12.8672 4.88018C12.7969 4.37568 12.5976 3.72061 12.3457 3.34326C11.4551 3.40186 10.6523 3.48096 9.98435 3.56182C10.4121 4.08623 11.039 4.83916 11.039 5.37939C11.0683 10.6347 10.875 15.9315 10.4707 21.2519C10.5644 21.1522 10.6582 21.0526 10.7578 20.9647C11.25 20.5194 11.8359 20.162 12.5156 20.203H12.5215C12.6738 20.2147 12.8203 20.244 12.9609 20.2851C12.9726 19.3124 12.9961 18.4745 12.9668 17.6835C13.2773 18.0116 13.5937 18.2694 14.0215 17.6483C14.0625 18.6796 14.0156 19.7284 14.0039 20.9823C14.0683 21.0468 14.1211 21.1112 14.1797 21.1757C14.6133 21.6796 14.9648 22.3007 15.2578 22.9101C15.3633 23.1327 15.457 23.3495 15.5449 23.5604C15.6211 20.2499 15.5742 16.9452 15.416 13.6347C15.9199 14.2968 16.1953 14.0448 16.4707 13.5878C16.6289 16.9042 16.6758 20.2265 16.5996 23.5429C17.2676 22.8808 18.0703 22.2011 19.0371 22.2187C19.2773 22.2245 19.4941 22.2772 19.6933 22.3651L19.6992 20.9647C20.1621 21.4862 20.4844 21.369 20.7539 20.9647L20.7422 23.203C20.9472 23.414 21.1465 23.6659 21.3164 23.8886C21.5449 23.7714 21.8379 23.6308 22.1894 23.4784L21.8554 19.1483C22.207 19.4706 22.5586 19.7343 22.9101 19.0663L23.2207 23.08C23.6074 22.9452 24.0117 22.8339 24.416 22.787C23.7597 17.3144 22.9394 11.537 21.8203 5.42041H21.8261C21.7441 4.9874 21.6328 4.56494 21.4804 4.27432C21.334 3.98428 21.1875 3.85068 20.9707 3.80147C19.9043 3.56006 18.7617 3.41182 17.6133 3.33037C18.1172 4.33467 18.1054 5.3794 18.1172 6.24014C18.1816 6.87295 17.1094 7.23623 17.0625 6.25186C17.0449 5.15557 17.0742 4.17412 16.3183 3.26475C15.9668 3.25303 15.6152 3.24775 15.2578 3.24717ZM20.5781 5.09404C21.2461 7.65811 21.7851 12.0937 22.166 14.7069C22.1133 15.7382 21.334 15.4921 21.123 14.8593C20.7422 12.2226 20.1797 7.76357 19.5586 5.36182C20.1386 5.81299 20.4961 5.76611 20.5781 5.09404ZM13.125 6.26943C13.3301 9.49209 13.2656 12.662 13.084 15.7909C13.0957 16.4354 12.1875 16.6171 12.0293 15.7323C12.2109 12.6269 12.2754 9.50381 12.0703 6.33975C12.5918 7.11904 12.9023 6.88467 13.125 6.26943ZM16.1426 7.58779C16.3301 9.19912 16.3945 10.1015 16.3711 11.0976C15.9961 11.6542 15.6504 11.5604 15.3164 11.0741C15.3398 10.1366 15.2754 9.30459 15.0996 7.70498C15.5097 8.20889 15.8496 8.0917 16.1426 7.58779ZM19.207 9.18154C19.4062 12.1522 19.459 14.455 19.5351 18.2519C19.2422 18.5683 18.9609 18.9374 18.4804 18.2753C18.4043 14.4784 18.3515 12.1991 18.1523 9.25186C18.5918 9.79678 18.9199 9.60342 19.207 9.18154ZM4.79294 19.7753C4.16423 19.7577 3.84607 20.8827 4.00896 21.4921C4.22458 22.3007 6.04685 22.9452 6.04685 22.9452C6.04685 22.9452 5.92966 19.8046 4.79294 19.7753ZM7.57029 19.7519C7.52341 19.787 7.49412 19.8339 7.47068 19.8866C7.22459 20.4667 8.7949 21.2401 8.7949 21.2401C8.7949 21.2401 9.1406 20.2206 8.83005 19.9042C8.55466 19.6229 7.8574 19.494 7.57029 19.7519ZM26.291 19.5292C26.2617 19.5292 26.2383 19.5292 26.2148 19.5351C25.5293 19.664 25.4004 20.9296 25.7285 21.58C25.7285 21.58 26.8301 21.0468 26.8886 20.5253C26.9355 20.1562 26.6543 19.5409 26.291 19.5292ZM28.0371 20.7304C26.8476 20.7948 27.0527 24.164 27.0527 24.164C27.0527 24.164 28.6758 23.5487 28.8808 22.8222C29.0859 22.1015 28.7871 20.6894 28.0371 20.7304ZM11.4668 21.744C11.0859 22.0897 10.7051 22.5995 10.3711 23.121C9.71482 24.164 9.26951 25.2304 9.26951 25.2304L9.05857 25.7401C7.76951 25.0897 6.89646 24.7558 5.67068 24.7089C4.88494 24.6796 4.2199 25.3827 4.06345 26.0214C3.98083 26.3964 4.06345 26.8593 4.59607 27.5214C11.6601 28.3886 22.8105 28.7577 28.6816 27.5448C28.8867 26.5839 28.5469 25.9218 27.9199 25.3241C27.2344 24.662 26.1738 24.1757 25.2832 23.8886C24.8554 23.7479 23.8242 23.9589 22.9746 24.2929C22.1191 24.6327 21.4277 25.0253 21.4277 25.0253L20.9941 25.2714L20.7246 24.8612C20.7246 24.8612 20.4433 24.4335 20.0625 24.0175C19.6758 23.6015 19.1543 23.2733 19.0254 23.2733C18.6386 23.2675 17.8125 23.8124 17.1797 24.4628C16.5527 25.1073 16.0898 25.7636 16.0898 25.7636L15.4453 26.6718L15.1465 25.5995C15.1465 25.5995 14.8359 24.4804 14.3027 23.3671C14.039 22.8046 13.7168 22.2538 13.3828 21.8612C12.6386 21.0761 12.1933 21.0995 11.4668 21.744ZM2.08474 22.4999C1.83455 22.494 1.61716 22.5702 1.50759 22.7636C1.02302 23.6073 3.31111 25.0663 3.31111 25.0663C3.31111 25.0663 3.71423 23.5136 3.2531 22.9979C3.00759 22.7284 2.50134 22.5058 2.08474 22.4999Z" fill="black"/>
</svg>
