<svg width="35" height="35" viewBox="0 0 35 35" fill="none" xmlns="http://www.w3.org/2000/svg">
<path d="M6 13.2917H29.3333L28.1156 26.6807C28.0498 27.4054 27.7154 28.0793 27.1782 28.5701C26.641 29.0609 25.9397 29.3331 25.2121 29.3334H10.1213C9.3936 29.3331 8.69233 29.0609 8.15512 28.5701C7.61791 28.0793 7.28356 27.4054 7.21771 26.6807L6 13.2917Z" stroke="black" stroke-linejoin="round"/>
<path d="M11.8333 16.2083V11.8333C11.8333 10.2862 12.4479 8.80251 13.5419 7.70854C14.6358 6.61458 16.1196 6 17.6666 6C19.2137 6 20.6975 6.61458 21.7914 7.70854C22.8854 8.80251 23.5 10.2862 23.5 11.8333V16.2083" stroke="black" stroke-linecap="round"/>
</svg>
